<?xml version="1.0" encoding="UTF-8"?>
<svg width="66px" height="77px" viewBox="0 0 66 77" version="1.1" xmlns="http://www.w3.org/2000/svg" xmlns:xlink="http://www.w3.org/1999/xlink">
    <title>pacientes</title>
    <g id="Page-1" stroke="none" stroke-width="1" fill="none" fill-rule="evenodd">
        <g id="Desktop-HD" transform="translate(-687.000000, -1375.000000)" fill-rule="nonzero">
            <g id="pacientes" transform="translate(687.000000, 1375.000000)">
                <path d="M20.34,50.65 C21.99,53.33 26.57,59.83 32.6,60.77 C32.7552341,60.7999624 32.9147659,60.7999624 33.07,60.77 C39.07,59.83 43.68,53.33 45.33,50.65 C54.7989134,54.2733589 61.2588554,63.1176068 61.83,73.24 L3.83,73.24 C4.41288249,63.1095741 10.8886385,54.2651164 20.37,50.65" id="Path" fill="#FFFFFF"></path>
                <path d="M4.42,69 C4.09606987,70.3970667 3.8886909,71.8186161 3.8,73.25 L61.83,73.25 C61.7495621,71.8183976 61.5454684,70.3964333 61.22,69 L4.42,69 Z" id="Path" fill="#9BC1EC"></path>
                <path d="M50.88,26.13 L50.58,26.13 C49.2438541,28.0975916 47.6458197,29.873933 45.83,31.41 C45.6647025,31.5458515 45.5315182,31.7166007 45.44,31.91 C44.0923848,34.850422 42.1319389,37.4688959 39.69,39.59 C37.24,41.59 34.99,42.53 32.9,42.45 C30.342359,42.2931393 27.9103717,41.2865569 25.99,39.59 C23.5450949,37.4716561 21.5841314,34.8524909 20.24,31.91 C20.1451242,31.7186908 20.0124527,31.5485992 19.85,31.41 C18.0168242,29.875385 16.4078335,28.0913576 15.07,26.11 L14.82,26.11 C14.3983583,26.3300395 14.1081523,26.7393044 14.04,27.21 C13.82,29.32 17.31,33.28 19.85,35.41 C20.0124527,35.5485992 20.1451242,35.7186908 20.24,35.91 C21.5841314,38.8524909 23.5450949,41.4716561 25.99,43.59 C27.9103717,45.2865569 30.342359,46.2931393 32.9,46.45 C34.99,46.53 37.24,45.6 39.69,43.59 C42.1319389,41.4688959 44.0923848,38.850422 45.44,35.91 C45.5315182,35.7166007 45.6647025,35.5458515 45.83,35.41 C48.37,33.27 51.83,29.32 51.64,27.21 C51.5748203,26.7488342 51.2920825,26.347049 50.88,26.13" id="Path" fill="#9BC1EC"></path>
                <path d="M19.83,31.39 C19.9924527,31.5285992 20.1251242,31.6986908 20.22,31.89 C21.5641646,34.8298017 23.521224,37.4483063 25.96,39.57 C27.8850771,41.2653196 30.3197412,42.2715536 32.88,42.43 C34.97,42.51 37.22,41.58 39.67,39.57 C42.1119389,37.4488959 44.0723848,34.830422 45.42,31.89 C45.5115182,31.6966007 45.6447025,31.5258515 45.81,31.39 C47.6281872,29.8563755 49.2265325,28.0796885 50.56,26.11 C43.56,25.9 38.67,22.87 34.71,20.4 C32.08,18.76 29.81,17.35 27.78,17.35 C25.6,17.35 24.2,19.05 22.58,21.03 C20.74,23.27 18.65,25.77 15.05,26.09 C16.3878335,28.0713576 17.9968242,29.855385 19.83,31.39" id="Path" fill="#FFFFFF"></path>
                <path d="M63.43,77 L2.25,77 C1.00735931,77 -2.05959923e-05,75.9926407 -2.05959923e-05,74.75 C-0.0150193743,61.9818449 8.18578676,50.6532707 20.32,46.68 C21.3548107,46.3326983 22.4889309,46.7855001 23,47.75 C23,47.83 27.39,55.84 32.84,57 C37.39,56 41.48,50 42.68,47.75 C43.1968862,46.7920026 44.3254502,46.3414193 45.36,46.68 C57.4922066,50.6540984 65.6895759,61.9835004 65.670035,74.75 C65.670035,75.9887459 64.6687337,76.9944945 63.43,77 Z M21.02,48 C20.9406521,47.9855549 20.8593479,47.9855549 20.78,48 C9.24051322,51.7673625 1.44285385,62.5411352 1.46992935,74.68 C1.46992935,75.1107821 1.8192179,75.46 2.25,75.46 L63.43,75.46 C63.8607821,75.46 64.2100707,75.1107821 64.2100707,74.68 C64.2371462,62.5411352 56.4394868,51.7673625 44.9,48 C44.5413063,47.8819545 44.1495668,48.0378078 43.97,48.37 C43.92,48.46 39.21,57.2 32.97,58.37 L32.83,58.37 L32.69,58.37 C26.43,57.18 21.74,48.42 21.69,48.37 C21.5495996,48.1350039 21.2936702,47.9936697 21.02,48 Z M62.65,74 L3.03,74 L3.03,73.23 C3.64163016,62.8172571 10.2915156,53.7264726 20.03,49.99 L20.6,49.78 L20.92,50.29 C22.55,52.94 26.92,59.19 32.67,60.08 L32.91,60.08 C38.63,59.19 43.03,52.94 44.66,50.29 L44.98,49.78 L45.54,49.99 C55.2816953,53.7222722 61.9333453,62.8154691 62.54,73.23 L62.65,74 Z M4.59,72.54 L61.08,72.54 C60.2565715,63.2037379 54.2980908,55.104832 45.63,51.54 C43.63,54.54 39.14,60.54 33.18,61.49 C32.9543261,61.5200016 32.7256739,61.5200016 32.5,61.49 C26.5,60.56 22,54.59 20.05,51.54 C11.388431,55.0988639 5.42816947,63.1833843 4.59,72.51 L4.59,72.54 Z" id="Shape" fill="#36576A"></path>
                <path d="M49.94,71.65 C48.6973593,71.65 47.69,70.6426407 47.69,69.4 L47.69,67.68 L45.97,67.68 C44.7881845,67.6010807 43.8699166,66.6194476 43.8699166,65.435 C43.8699166,64.2505524 44.7881845,63.2689193 45.97,63.19 L47.69,63.19 L47.69,61.47 C47.7689193,60.2881845 48.7505524,59.3699166 49.935,59.3699166 C51.1194476,59.3699166 52.1010807,60.2881845 52.18,61.47 L52.18,63.19 L53.9,63.19 C54.737823,63.1340518 55.5370877,63.5492906 55.9729899,64.2669721 C56.4088922,64.9846537 56.4088922,65.8853463 55.9729899,66.6030279 C55.5370877,67.3207094 54.737823,67.7359482 53.9,67.68 L52.18,67.68 L52.18,69.4 C52.1800122,70.6387459 51.1787337,71.6444945 49.94,71.65 L49.94,71.65 Z M45.94,64.65 C45.5092179,64.65 45.16,64.9992179 45.16,65.43 C45.16,65.8607821 45.5092179,66.21 45.94,66.21 L49.13,66.21 L49.13,69.39 C49.13,69.8207821 49.4792179,70.17 49.91,70.17 C50.3407821,70.17 50.69,69.8207821 50.69,69.39 L50.69,66.21 L53.87,66.21 C54.3007821,66.21 54.65,65.8607821 54.65,65.43 C54.65,64.9992179 54.3007821,64.65 53.87,64.65 L50.69,64.65 L50.69,61.46 C50.69,61.0292179 50.3407821,60.68 49.91,60.68 C49.4792179,60.68 49.13,61.0292179 49.13,61.46 L49.13,64.65 L45.94,64.65 Z" id="Shape" fill="#36576A"></path>
                <path d="M19.73,8.78 C22.61,5.44 27.02,3.78 32.83,3.78 L32.83,3.78 C38.63,3.78 43.04,5.47 45.93,8.78 C49.98,13.44 50.12,20.21 49.93,23.07 C44.13,22.7 39.93,20.15 36.28,17.84 C33.28,15.96 30.65,14.34 27.75,14.34 C24.14,14.34 22.05,16.88 20.21,19.13 C18.78,20.88 17.49,22.42 15.64,22.94 C15.5,20.01 15.64,13.39 19.64,8.79" id="Path" fill="#FFFFFF"></path>
                <path d="M33.14,50.21 L32.75,50.21 C29.3719648,50.0267464 26.151772,48.7210726 23.6,46.5 C20.8543745,44.1451498 18.630313,41.2433115 17.07,37.98 C15.22,36.36 9.86,31.24 10.3,26.84 C10.4283415,25.5846133 11.0202399,24.4222104 11.96,23.58 C11.72,20.07 11.85,12.14 16.89,6.33 C20.52,2.13 25.89,0.01 32.83,0.01 C39.77,0.01 45.16,2.14 48.83,6.33 C53.83,12.15 54,20.07 53.76,23.58 C54.7015669,24.4196012 55.290956,25.5840912 55.41,26.84 C55.86,31.24 50.5,36.36 48.65,37.98 C47.0861849,41.2411631 44.8626407,44.1423264 42.12,46.5 C39.07,49 36.06,50.21 33.14,50.21 Z M32.84,1.46 C26.33,1.46 21.34,3.46 18,7.28 C13,13.05 13.25,21.41 13.45,23.83 L13.45,24.22 L13.14,24.46 C12.3398785,25.0672556 11.8289424,25.9804181 11.73,26.98 C11.34,30.87 16.97,35.98 18.11,36.98 L18.22,37.07 L18.29,37.21 C19.7636581,40.3389912 21.8795414,43.1226895 24.5,45.38 C26.8078749,47.3952128 29.7211519,48.5844491 32.78,48.76 L33.11,48.76 C35.68,48.76 38.38,47.62 41.11,45.36 C43.7267304,43.1031375 45.8420882,40.3235369 47.32,37.2 L47.39,37.06 L47.5,36.97 C48.63,35.97 54.27,30.88 53.87,26.97 C53.7770741,25.9685381 53.2648712,25.0531116 52.46,24.45 L52.16,24.21 L52.16,23.82 C52.36,21.4 52.61,13.05 47.61,7.27 C44.34,3.42 39.34,1.46 32.83,1.46 L32.84,1.46 Z M33.12,47.19 L32.83,47.19 C30.1149132,47.0336004 27.5290654,45.9781523 25.48,44.19 C22.9536872,42.0076959 20.9276443,39.3063055 19.54,36.27 C19.4906322,36.1713042 19.4227306,36.0830321 19.34,36.01 C17.55,34.51 12.98,30.01 13.27,27.17 C13.362123,26.4819755 13.7735643,25.8777869 14.38,25.54 L14.55,25.43 L14.74,25.43 C18.22,25.22 20.23,22.78 21.99,20.62 C23.75,18.46 25.23,16.62 27.76,16.62 C30,16.62 32.35,18.09 35.08,19.79 C38.99,22.23 43.86,25.27 50.85,25.41 L51.07,25.41 L51.24,25.53 C51.8367617,25.8679302 52.2375882,26.4691699 52.32,27.15 C52.61,29.97 48.04,34.48 46.26,35.98 C46.1715446,36.047486 46.1025387,36.1371935 46.06,36.24 C44.6691186,39.274381 42.643559,41.9751271 40.12,44.16 C37.7,46.17 35.34,47.19 33.12,47.19 Z M15.12,26.83 C14.83,27.05 14.82,27.21 14.81,27.28 C14.65,28.89 17.55,32.49 20.36,34.85 C20.606978,35.0534896 20.8051749,35.3097788 20.94,35.6 C22.2382565,38.4416693 24.1308062,40.9718889 26.49,43.02 C28.2890745,44.6164757 30.5696038,45.5666963 32.97,45.72 C34.9,45.79 36.97,44.88 39.27,43.02 C41.6221735,40.967719 43.5106674,38.4383644 44.81,35.6 C44.9481294,35.3118028 45.1458122,35.0561787 45.39,34.85 C48.21,32.48 51.11,28.85 50.95,27.28 C50.95,27.22 50.95,27.07 50.67,26.86 C43.4,26.65 38.19,23.4 34.38,21.02 C31.85,19.44 29.66,18.08 27.84,18.08 C26.02,18.08 24.77,19.59 23.21,21.49 C21.34,23.73 19.07,26.5 15.08,26.83 L15.12,26.83 Z M15.04,23.83 L14.99,22.91 C14.86,20.12 14.99,13.11 19.21,8.25 L19.21,8.25 C22.21,4.74 26.84,2.97 32.87,2.97 C38.9,2.97 43.5,4.74 46.53,8.24 C50.78,13.13 50.9,20.24 50.75,23.05 L50.75,23.79 L50.01,23.74 C43.96,23.36 39.55,20.61 36.01,18.41 C33.08,16.58 30.56,15.01 27.87,15.01 C24.6,15.01 22.72,17.31 20.87,19.53 C19.48,21.23 18.04,22.99 15.92,23.53 L15.04,23.83 Z M27.84,13.54 C30.95,13.54 33.64,15.22 36.75,17.16 C40.17,19.29 44.02,21.69 49.32,22.22 C49.38,19.22 49,13.31 45.43,9.22 C42.68,6.06 38.43,4.45 32.88,4.45 C27.33,4.45 23.06,6.06 20.32,9.23 L20.32,9.23 C16.9,13.23 16.41,18.78 16.43,21.82 C17.7226767,20.9683855 18.8451992,19.8831674 19.74,18.62 C21.54,16.4 23.83,13.59 27.83,13.59 L27.84,13.54 Z" id="Shape" fill="#36576A"></path>
            </g>
        </g>
    </g>
</svg>