<?xml version="1.0" encoding="UTF-8"?>
<svg width="583px" height="461px" viewBox="0 0 583 461" version="1.1" xmlns="http://www.w3.org/2000/svg" xmlns:xlink="http://www.w3.org/1999/xlink">
    <title>Group 5</title>
    <defs>
        <path d="M51.2188841,1.68697649 C43.0567597,3.46472333 35.4199571,6.75434358 28.122103,10.3030778 L28.122103,10.3030778 C18.3247854,15.0665895 11.3465665,18.2686582 8.20364807,28.0657396 L8.20364807,28.0657396 C4.71630901,38.9356492 2.60021459,50.1004014 1.4195279,61.3250235 L1.4195279,61.3250235 C-2.03594421,94.1784159 2.53583691,127.115497 2.42639485,159.985627 L2.42639485,159.985627 C2.41545064,163.216665 2.46502146,166.575812 4.1056867,169.480785 L4.1056867,169.480785 C7.34066524,175.208651 16.1311159,175.288799 22.4633047,175.279465 L22.4633047,175.279465 C43.3339056,175.248242 64.2048283,175.21702 85.0757511,175.185797 L85.0757511,175.185797 C93.7593348,175.172922 100.393777,176.08996 108.545923,177.534882 L108.545923,177.534882 C115.406974,178.750304 121.296567,175.765183 124.588197,170.260058 L124.588197,170.260058 C127.703755,165.049132 127.940987,158.963335 128.275107,153.107038 L128.275107,153.107038 C129.574249,130.323038 133.322961,107.643005 139.456545,85.4531971 L139.456545,85.4531971 C141.193455,79.169443 144.239163,70.9527957 146.604721,62.3128752 L146.604721,62.3128752 C150.529506,47.9795298 152.565451,33.315613 143.669742,23.552651 L143.669742,23.552651 C139.652575,19.143208 132.495064,16.0724665 126.637661,13.889472 L126.637661,13.889472 C115.213519,9.63131284 103.533476,3.90730922 91.3036481,2.05134539 L91.3036481,2.05134539 C83.847103,0.919934901 75.9045064,0.0389475588 68.048176,0.0389475588 L68.048176,0.0389475588 C62.3198498,0.0389475588 56.6378755,0.506962025 51.2188841,1.68697649" id="path-1"></path>
        <path d="M28.122103,10.3030778 C18.3247854,15.0665895 11.3465665,18.2686582 8.20364807,28.0657396 C4.71630901,38.9356492 2.60021459,50.1004014 1.4195279,61.3250235 C-2.03594421,94.1784159 2.53583691,127.115497 2.42639485,159.985627 C2.41545064,163.216665 2.46502146,166.575812 4.1056867,169.480785 C7.34066524,175.208651 16.1311159,175.288799 22.4633047,175.279465 C43.3339056,175.248242 64.2048283,175.21702 85.0757511,175.185797 C93.7593348,175.172922 100.393777,176.08996 108.545923,177.534882 C115.406974,178.750304 121.296567,175.765183 124.588197,170.260058 C127.703755,165.049132 127.940987,158.963335 128.275107,153.107038 C129.574249,130.323038 133.322961,107.643005 139.456545,85.4531971 C141.193455,79.169443 144.239163,70.9527957 146.604721,62.3128752 C150.529506,47.9795298 152.565451,33.315613 143.669742,23.552651 C139.652575,19.143208 132.495064,16.0724665 126.637661,13.889472 C115.213519,9.63131284 103.533476,3.90730922 91.3036481,2.05134539 C83.847103,0.919934901 75.9045064,0.0389475588 68.048176,0.0389475588 C62.3198498,0.0389475588 56.6378755,0.506962025 51.2188841,1.68697649 C43.0567597,3.46472333 35.4199571,6.75434358 28.122103,10.3030778 Z" id="path-3"></path>
        <path d="M15.7666016,3.33559633 C11.0757358,7.32559633 14.6031179,15.5338991 10.5660894,19.4824771 L10.5660894,19.4824771 C6.99631707,22.9738073 2.45606504,22.396789 0.630394309,28.1923394 L0.630394309,28.1923394 C-2.05560569,36.7175688 6.4099187,44.1876606 9.12739024,51.5598165 L9.12739024,51.5598165 C11.4077927,57.7464679 6.27889431,60.1036697 3.97472764,64.9246789 L3.97472764,64.9246789 C2.19819106,68.641422 3.11150813,72.6224312 5.04732927,76.1754128 L5.04732927,76.1754128 C8.46102846,82.4407339 16.0292927,87.4849083 14.275878,95.597844 L14.275878,95.597844 C12.8124512,102.368578 11.4517886,108.402706 17.4268862,113.53422 L17.4268862,113.53422 C21.5226829,117.052202 29.1220976,120.257752 28.5427642,126.768716 L28.5427642,126.768716 C28.3381992,129.072615 26.7431057,131.036468 26.3060366,133.307936 L26.3060366,133.307936 C25.6143049,136.902661 27.9431992,140.401055 30.6475041,142.868394 L30.6475041,142.868394 C36.8008333,148.482202 42.2055894,153.776835 46.8152073,160.840092 L46.8152073,160.840092 C48.784748,163.857477 56.6702967,170.672523 53.5186463,174.798991 L53.5186463,174.798991 C59.2471098,167.298716 65.3012073,160.025459 70.5062154,152.140826 L70.5062154,152.140826 C74.7869878,145.655229 81.2402602,136.170229 76.8474106,128.183165 L76.8474106,128.183165 C75.4812886,125.699128 72.940122,123.847339 72.2438943,121.098716 L72.2438943,121.098716 C70.9869593,116.135459 75.8644065,111.534083 77.6769106,107.311284 L77.6769106,107.311284 C80.5238008,100.681835 78.4344756,92.982156 73.4202236,88.0057339 L73.4202236,88.0057339 C71.0476545,85.6507798 68.4734106,83.061422 68.1246545,79.7370642 L68.1246545,79.7370642 C67.7441057,76.1076606 70.0203333,72.7232569 71.0524715,69.3748165 L71.0524715,69.3748165 C72.0049675,66.2880734 72.5981098,63.0067431 72.9455813,59.8005505 L72.9455813,59.8005505 C73.1909309,57.5364679 73.2856667,55.2200459 72.7532195,53.006055 L72.7532195,53.006055 C71.7406707,48.7951376 67.9480285,46.4543119 65.1409593,43.4664679 L65.1409593,43.4664679 C58.4580732,36.3534404 61.9710041,27.9897248 59.0515366,19.7233028 L59.0515366,19.7233028 C56.7168618,13.1118349 51.9415366,13.1837615 47.074687,13.2556881 L47.074687,13.2556881 C46.4786545,13.2643578 45.8813374,13.2730275 45.2869106,13.2698165 L45.2869106,13.2698165 C41.7534268,13.2492661 38.3233496,12.7945872 35.9026098,9.32830275 L35.9026098,9.32830275 C32.6318171,4.64440367 28.1740976,0.289632941 23.060935,0.289632941 L23.060935,0.289632941 C20.7471341,0.289632941 18.300061,1.18036697 15.7666016,3.33559633" id="path-5"></path>
        <path d="M15.7666016,3.33559633 C11.0757358,7.32559633 14.6031179,15.5338991 10.5660894,19.4824771 L10.5660894,19.4824771 C6.99631707,22.9738073 2.45606504,22.396789 0.630394309,28.1923394 L0.630394309,28.1923394 C-2.05560569,36.7175688 6.4099187,44.1876606 9.12739024,51.5598165 L9.12739024,51.5598165 C11.4077927,57.7464679 6.27889431,60.1036697 3.97472764,64.9246789 L3.97472764,64.9246789 C2.19819106,68.641422 3.11150813,72.6224312 5.04732927,76.1754128 L5.04732927,76.1754128 C8.46102846,82.4407339 16.0292927,87.4849083 14.275878,95.597844 L14.275878,95.597844 C12.8124512,102.368578 11.4517886,108.402706 17.4268862,113.53422 L17.4268862,113.53422 C21.5226829,117.052202 29.1220976,120.257752 28.5427642,126.768716 L28.5427642,126.768716 C28.3381992,129.072615 26.7431057,131.036468 26.3060366,133.307936 L26.3060366,133.307936 C25.6143049,136.902661 27.9431992,140.401055 30.6475041,142.868394 L30.6475041,142.868394 C36.8008333,148.482202 42.2055894,153.776835 46.8152073,160.840092 L46.8152073,160.840092 C48.784748,163.857477 56.6702967,170.672523 53.5186463,174.798991 L53.5186463,174.798991 C59.2471098,167.298716 65.3012073,160.025459 70.5062154,152.140826 L70.5062154,152.140826 C74.7869878,145.655229 81.2402602,136.170229 76.8474106,128.183165 L76.8474106,128.183165 C75.4812886,125.699128 72.940122,123.847339 72.2438943,121.098716 L72.2438943,121.098716 C70.9869593,116.135459 75.8644065,111.534083 77.6769106,107.311284 L77.6769106,107.311284 C80.5238008,100.681835 78.4344756,92.982156 73.4202236,88.0057339 L73.4202236,88.0057339 C71.0476545,85.6507798 68.4734106,83.061422 68.1246545,79.7370642 L68.1246545,79.7370642 C67.7441057,76.1076606 70.0203333,72.7232569 71.0524715,69.3748165 L71.0524715,69.3748165 C72.0049675,66.2880734 72.5981098,63.0067431 72.9455813,59.8005505 L72.9455813,59.8005505 C73.1909309,57.5364679 73.2856667,55.2200459 72.7532195,53.006055 L72.7532195,53.006055 C71.7406707,48.7951376 67.9480285,46.4543119 65.1409593,43.4664679 L65.1409593,43.4664679 C58.4580732,36.3534404 61.9710041,27.9897248 59.0515366,19.7233028 L59.0515366,19.7233028 C56.7168618,13.1118349 51.9415366,13.1837615 47.074687,13.2556881 L47.074687,13.2556881 C46.4786545,13.2643578 45.8813374,13.2730275 45.2869106,13.2698165 L45.2869106,13.2698165 C41.7534268,13.2492661 38.3233496,12.7945872 35.9026098,9.32830275 L35.9026098,9.32830275 C32.6318171,4.64440367 28.1740976,0.289632941 23.060935,0.289632941 L23.060935,0.289632941 C20.7471341,0.289632941 18.300061,1.18036697 15.7666016,3.33559633" id="path-7"></path>
        <path d="M15.7666016,3.33559633 C11.0757358,7.32559633 14.6031179,15.5338991 10.5660894,19.4824771 L10.5660894,19.4824771 C6.99631707,22.9738073 2.45606504,22.396789 0.630394309,28.1923394 L0.630394309,28.1923394 C-2.05560569,36.7175688 6.4099187,44.1876606 9.12739024,51.5598165 L9.12739024,51.5598165 C11.4077927,57.7464679 6.27889431,60.1036697 3.97472764,64.9246789 L3.97472764,64.9246789 C2.19819106,68.641422 3.11150813,72.6224312 5.04732927,76.1754128 L5.04732927,76.1754128 C8.46102846,82.4407339 16.0292927,87.4849083 14.275878,95.597844 L14.275878,95.597844 C12.8124512,102.368578 11.4517886,108.402706 17.4268862,113.53422 L17.4268862,113.53422 C21.5226829,117.052202 29.1220976,120.257752 28.5427642,126.768716 L28.5427642,126.768716 C28.3381992,129.072615 26.7431057,131.036468 26.3060366,133.307936 L26.3060366,133.307936 C25.6143049,136.902661 27.9431992,140.401055 30.6475041,142.868394 L30.6475041,142.868394 C36.8008333,148.482202 42.2055894,153.776835 46.8152073,160.840092 L46.8152073,160.840092 C48.784748,163.857477 56.6702967,170.672523 53.5186463,174.798991 L53.5186463,174.798991 C59.2471098,167.298716 65.3012073,160.025459 70.5062154,152.140826 L70.5062154,152.140826 C74.7869878,145.655229 81.2402602,136.170229 76.8474106,128.183165 L76.8474106,128.183165 C75.4812886,125.699128 72.940122,123.847339 72.2438943,121.098716 L72.2438943,121.098716 C70.9869593,116.135459 75.8644065,111.534083 77.6769106,107.311284 L77.6769106,107.311284 C80.5238008,100.681835 78.4344756,92.982156 73.4202236,88.0057339 L73.4202236,88.0057339 C71.0476545,85.6507798 68.4734106,83.061422 68.1246545,79.7370642 L68.1246545,79.7370642 C67.7441057,76.1076606 70.0203333,72.7232569 71.0524715,69.3748165 L71.0524715,69.3748165 C72.0049675,66.2880734 72.5981098,63.0067431 72.9455813,59.8005505 L72.9455813,59.8005505 C73.1909309,57.5364679 73.2856667,55.2200459 72.7532195,53.006055 L72.7532195,53.006055 C71.7406707,48.7951376 67.9480285,46.4543119 65.1409593,43.4664679 L65.1409593,43.4664679 C58.4580732,36.3534404 61.9710041,27.9897248 59.0515366,19.7233028 L59.0515366,19.7233028 C56.7168618,13.1118349 51.9415366,13.1837615 47.074687,13.2556881 L47.074687,13.2556881 C46.4786545,13.2643578 45.8813374,13.2730275 45.2869106,13.2698165 L45.2869106,13.2698165 C41.7534268,13.2492661 38.3233496,12.7945872 35.9026098,9.32830275 L35.9026098,9.32830275 C32.6318171,4.64440367 28.1740976,0.289632941 23.060935,0.289632941 L23.060935,0.289632941 C20.7471341,0.289632941 18.300061,1.18036697 15.7666016,3.33559633" id="path-9"></path>
        <path d="M15.7666016,3.33559633 C11.0757358,7.32559633 14.6031179,15.5338991 10.5660894,19.4824771 L10.5660894,19.4824771 C6.99631707,22.9738073 2.45606504,22.396789 0.630394309,28.1923394 L0.630394309,28.1923394 C-2.05560569,36.7175688 6.4099187,44.1876606 9.12739024,51.5598165 L9.12739024,51.5598165 C11.4077927,57.7464679 6.27889431,60.1036697 3.97472764,64.9246789 L3.97472764,64.9246789 C2.19819106,68.641422 3.11150813,72.6224312 5.04732927,76.1754128 L5.04732927,76.1754128 C8.46102846,82.4407339 16.0292927,87.4849083 14.275878,95.597844 L14.275878,95.597844 C12.8124512,102.368578 11.4517886,108.402706 17.4268862,113.53422 L17.4268862,113.53422 C21.5226829,117.052202 29.1220976,120.257752 28.5427642,126.768716 L28.5427642,126.768716 C28.3381992,129.072615 26.7431057,131.036468 26.3060366,133.307936 L26.3060366,133.307936 C25.6143049,136.902661 27.9431992,140.401055 30.6475041,142.868394 L30.6475041,142.868394 C36.8008333,148.482202 42.2055894,153.776835 46.8152073,160.840092 L46.8152073,160.840092 C48.784748,163.857477 56.6702967,170.672523 53.5186463,174.798991 L53.5186463,174.798991 C59.2471098,167.298716 65.3012073,160.025459 70.5062154,152.140826 L70.5062154,152.140826 C74.7869878,145.655229 81.2402602,136.170229 76.8474106,128.183165 L76.8474106,128.183165 C75.4812886,125.699128 72.940122,123.847339 72.2438943,121.098716 L72.2438943,121.098716 C70.9869593,116.135459 75.8644065,111.534083 77.6769106,107.311284 L77.6769106,107.311284 C80.5238008,100.681835 78.4344756,92.982156 73.4202236,88.0057339 L73.4202236,88.0057339 C71.0476545,85.6507798 68.4734106,83.061422 68.1246545,79.7370642 L68.1246545,79.7370642 C67.7441057,76.1076606 70.0203333,72.7232569 71.0524715,69.3748165 L71.0524715,69.3748165 C72.0049675,66.2880734 72.5981098,63.0067431 72.9455813,59.8005505 L72.9455813,59.8005505 C73.1909309,57.5364679 73.2856667,55.2200459 72.7532195,53.006055 L72.7532195,53.006055 C71.7406707,48.7951376 67.9480285,46.4543119 65.1409593,43.4664679 L65.1409593,43.4664679 C58.4580732,36.3534404 61.9710041,27.9897248 59.0515366,19.7233028 L59.0515366,19.7233028 C56.7168618,13.1118349 51.9415366,13.1837615 47.074687,13.2556881 L47.074687,13.2556881 C46.4786545,13.2643578 45.8813374,13.2730275 45.2869106,13.2698165 L45.2869106,13.2698165 C41.7534268,13.2492661 38.3233496,12.7945872 35.9026098,9.32830275 L35.9026098,9.32830275 C32.6318171,4.64440367 28.1740976,0.289632941 23.060935,0.289632941 L23.060935,0.289632941 C20.7471341,0.289632941 18.300061,1.18036697 15.7666016,3.33559633" id="path-11"></path>
        <path d="M15.7666016,3.33559633 C11.0757358,7.32559633 14.6031179,15.5338991 10.5660894,19.4824771 L10.5660894,19.4824771 C6.99631707,22.9738073 2.45606504,22.396789 0.630394309,28.1923394 L0.630394309,28.1923394 C-2.05560569,36.7175688 6.4099187,44.1876606 9.12739024,51.5598165 L9.12739024,51.5598165 C11.4077927,57.7464679 6.27889431,60.1036697 3.97472764,64.9246789 L3.97472764,64.9246789 C2.19819106,68.641422 3.11150813,72.6224312 5.04732927,76.1754128 L5.04732927,76.1754128 C8.46102846,82.4407339 16.0292927,87.4849083 14.275878,95.597844 L14.275878,95.597844 C12.8124512,102.368578 11.4517886,108.402706 17.4268862,113.53422 L17.4268862,113.53422 C21.5226829,117.052202 29.1220976,120.257752 28.5427642,126.768716 L28.5427642,126.768716 C28.3381992,129.072615 26.7431057,131.036468 26.3060366,133.307936 L26.3060366,133.307936 C25.6143049,136.902661 27.9431992,140.401055 30.6475041,142.868394 L30.6475041,142.868394 C36.8008333,148.482202 42.2055894,153.776835 46.8152073,160.840092 L46.8152073,160.840092 C48.784748,163.857477 56.6702967,170.672523 53.5186463,174.798991 L53.5186463,174.798991 C59.2471098,167.298716 65.3012073,160.025459 70.5062154,152.140826 L70.5062154,152.140826 C74.7869878,145.655229 81.2402602,136.170229 76.8474106,128.183165 L76.8474106,128.183165 C75.4812886,125.699128 72.940122,123.847339 72.2438943,121.098716 L72.2438943,121.098716 C70.9869593,116.135459 75.8644065,111.534083 77.6769106,107.311284 L77.6769106,107.311284 C80.5238008,100.681835 78.4344756,92.982156 73.4202236,88.0057339 L73.4202236,88.0057339 C71.0476545,85.6507798 68.4734106,83.061422 68.1246545,79.7370642 L68.1246545,79.7370642 C67.7441057,76.1076606 70.0203333,72.7232569 71.0524715,69.3748165 L71.0524715,69.3748165 C72.0049675,66.2880734 72.5981098,63.0067431 72.9455813,59.8005505 L72.9455813,59.8005505 C73.1909309,57.5364679 73.2856667,55.2200459 72.7532195,53.006055 L72.7532195,53.006055 C71.7406707,48.7951376 67.9480285,46.4543119 65.1409593,43.4664679 L65.1409593,43.4664679 C58.4580732,36.3534404 61.9710041,27.9897248 59.0515366,19.7233028 L59.0515366,19.7233028 C56.7168618,13.1118349 51.9415366,13.1837615 47.074687,13.2556881 L47.074687,13.2556881 C46.4786545,13.2643578 45.8813374,13.2730275 45.2869106,13.2698165 L45.2869106,13.2698165 C41.7534268,13.2492661 38.3233496,12.7945872 35.9026098,9.32830275 L35.9026098,9.32830275 C32.6318171,4.64440367 28.1740976,0.289632941 23.060935,0.289632941 L23.060935,0.289632941 C20.7471341,0.289632941 18.300061,1.18036697 15.7666016,3.33559633" id="path-13"></path>
        <path d="M15.7666016,3.33559633 C11.0757358,7.32559633 14.6031179,15.5338991 10.5660894,19.4824771 L10.5660894,19.4824771 C6.99631707,22.9738073 2.45606504,22.396789 0.630394309,28.1923394 L0.630394309,28.1923394 C-2.05560569,36.7175688 6.4099187,44.1876606 9.12739024,51.5598165 L9.12739024,51.5598165 C11.4077927,57.7464679 6.27889431,60.1036697 3.97472764,64.9246789 L3.97472764,64.9246789 C2.19819106,68.641422 3.11150813,72.6224312 5.04732927,76.1754128 L5.04732927,76.1754128 C8.46102846,82.4407339 16.0292927,87.4849083 14.275878,95.597844 L14.275878,95.597844 C12.8124512,102.368578 11.4517886,108.402706 17.4268862,113.53422 L17.4268862,113.53422 C21.5226829,117.052202 29.1220976,120.257752 28.5427642,126.768716 L28.5427642,126.768716 C28.3381992,129.072615 26.7431057,131.036468 26.3060366,133.307936 L26.3060366,133.307936 C25.6143049,136.902661 27.9431992,140.401055 30.6475041,142.868394 L30.6475041,142.868394 C36.8008333,148.482202 42.2055894,153.776835 46.8152073,160.840092 L46.8152073,160.840092 C48.784748,163.857477 56.6702967,170.672523 53.5186463,174.798991 L53.5186463,174.798991 C59.2471098,167.298716 65.3012073,160.025459 70.5062154,152.140826 L70.5062154,152.140826 C74.7869878,145.655229 81.2402602,136.170229 76.8474106,128.183165 L76.8474106,128.183165 C75.4812886,125.699128 72.940122,123.847339 72.2438943,121.098716 L72.2438943,121.098716 C70.9869593,116.135459 75.8644065,111.534083 77.6769106,107.311284 L77.6769106,107.311284 C80.5238008,100.681835 78.4344756,92.982156 73.4202236,88.0057339 L73.4202236,88.0057339 C71.0476545,85.6507798 68.4734106,83.061422 68.1246545,79.7370642 L68.1246545,79.7370642 C67.7441057,76.1076606 70.0203333,72.7232569 71.0524715,69.3748165 L71.0524715,69.3748165 C72.0049675,66.2880734 72.5981098,63.0067431 72.9455813,59.8005505 L72.9455813,59.8005505 C73.1909309,57.5364679 73.2856667,55.2200459 72.7532195,53.006055 L72.7532195,53.006055 C71.7406707,48.7951376 67.9480285,46.4543119 65.1409593,43.4664679 L65.1409593,43.4664679 C58.4580732,36.3534404 61.9710041,27.9897248 59.0515366,19.7233028 L59.0515366,19.7233028 C56.7168618,13.1118349 51.9415366,13.1837615 47.074687,13.2556881 L47.074687,13.2556881 C46.4786545,13.2643578 45.8813374,13.2730275 45.2869106,13.2698165 L45.2869106,13.2698165 C41.7534268,13.2492661 38.3233496,12.7945872 35.9026098,9.32830275 L35.9026098,9.32830275 C32.6318171,4.64440367 28.1740976,0.289632941 23.060935,0.289632941 L23.060935,0.289632941 C20.7471341,0.289632941 18.300061,1.18036697 15.7666016,3.33559633" id="path-15"></path>
        <path d="M15.7666016,3.33559633 C11.0757358,7.32559633 14.6031179,15.5338991 10.5660894,19.4824771 L10.5660894,19.4824771 C6.99631707,22.9738073 2.45606504,22.396789 0.630394309,28.1923394 L0.630394309,28.1923394 C-2.05560569,36.7175688 6.4099187,44.1876606 9.12739024,51.5598165 L9.12739024,51.5598165 C11.4077927,57.7464679 6.27889431,60.1036697 3.97472764,64.9246789 L3.97472764,64.9246789 C2.19819106,68.641422 3.11150813,72.6224312 5.04732927,76.1754128 L5.04732927,76.1754128 C8.46102846,82.4407339 16.0292927,87.4849083 14.275878,95.597844 L14.275878,95.597844 C12.8124512,102.368578 11.4517886,108.402706 17.4268862,113.53422 L17.4268862,113.53422 C21.5226829,117.052202 29.1220976,120.257752 28.5427642,126.768716 L28.5427642,126.768716 C28.3381992,129.072615 26.7431057,131.036468 26.3060366,133.307936 L26.3060366,133.307936 C25.6143049,136.902661 27.9431992,140.401055 30.6475041,142.868394 L30.6475041,142.868394 C36.8008333,148.482202 42.2055894,153.776835 46.8152073,160.840092 L46.8152073,160.840092 C48.784748,163.857477 56.6702967,170.672523 53.5186463,174.798991 L53.5186463,174.798991 C59.2471098,167.298716 65.3012073,160.025459 70.5062154,152.140826 L70.5062154,152.140826 C74.7869878,145.655229 81.2402602,136.170229 76.8474106,128.183165 L76.8474106,128.183165 C75.4812886,125.699128 72.940122,123.847339 72.2438943,121.098716 L72.2438943,121.098716 C70.9869593,116.135459 75.8644065,111.534083 77.6769106,107.311284 L77.6769106,107.311284 C80.5238008,100.681835 78.4344756,92.982156 73.4202236,88.0057339 L73.4202236,88.0057339 C71.0476545,85.6507798 68.4734106,83.061422 68.1246545,79.7370642 L68.1246545,79.7370642 C67.7441057,76.1076606 70.0203333,72.7232569 71.0524715,69.3748165 L71.0524715,69.3748165 C72.0049675,66.2880734 72.5981098,63.0067431 72.9455813,59.8005505 L72.9455813,59.8005505 C73.1909309,57.5364679 73.2856667,55.2200459 72.7532195,53.006055 L72.7532195,53.006055 C71.7406707,48.7951376 67.9480285,46.4543119 65.1409593,43.4664679 L65.1409593,43.4664679 C58.4580732,36.3534404 61.9710041,27.9897248 59.0515366,19.7233028 L59.0515366,19.7233028 C56.7168618,13.1118349 51.9415366,13.1837615 47.074687,13.2556881 L47.074687,13.2556881 C46.4786545,13.2643578 45.8813374,13.2730275 45.2869106,13.2698165 L45.2869106,13.2698165 C41.7534268,13.2492661 38.3233496,12.7945872 35.9026098,9.32830275 L35.9026098,9.32830275 C32.6318171,4.64440367 28.1740976,0.289632941 23.060935,0.289632941 L23.060935,0.289632941 C20.7471341,0.289632941 18.300061,1.18036697 15.7666016,3.33559633" id="path-17"></path>
        <path d="M48.7691839,5.10305483 C46.522009,7.28269191 43.95713,7.13753264 41.3770762,6.66319582 L41.3770762,6.66319582 C37.3989955,5.9322611 33.3850762,4.41900783 30.4408251,9.43952742 L30.4408251,9.43952742 C27.1611121,15.0332977 28.5588161,21.5869817 22.6954978,25.8222924 L22.6954978,25.8222924 C20.2323229,27.6014569 17.140843,28.7746136 15.8164305,31.6893603 L15.8164305,31.6893603 C15.1196771,33.2218825 14.8662242,34.9156214 14.730296,36.5920183 L14.730296,36.5920183 C14.5372197,38.9662715 14.5133274,41.4291619 14.7777578,43.8002037 L14.7777578,43.8002037 C15.0651121,46.3719634 16.2539193,49.1425144 15.4709596,51.7232663 L15.4709596,51.7232663 C14.7541883,54.0866005 12.5163767,55.608846 10.4584036,56.9885013 L10.4584036,56.9885013 C6.10902242,59.9048538 3.51347085,65.2018825 4.6670852,70.4051358 L4.6670852,70.4051358 C5.40193722,73.7197128 8.31809865,77.7331097 6.71052915,81.1597676 L6.71052915,81.1597676 C5.82037668,83.0577572 3.70945291,84.0494648 2.36728251,85.6625953 L2.36728251,85.6625953 C-1.94787444,90.8491488 1.43806278,98.6231984 3.65747085,103.920869 L3.65747085,103.920869 C6.35569507,110.361509 9.75874439,116.476183 12.892843,122.710324 L12.892843,122.710324 C11.1687175,119.280775 17.8679462,115.427953 19.7244484,113.511016 L19.7244484,113.511016 C24.0689865,109.025209 28.7473722,105.932225 34.016287,102.711102 L34.016287,102.711102 C36.3319103,101.295478 38.517417,99.0798721 38.5128969,96.3761201 L38.5128969,96.3761201 C38.5103139,94.6676084 37.6204843,93.0220418 37.7919283,91.322201 L37.7919283,91.322201 C38.2755874,86.5184569 44.2641794,85.2447807 47.7405202,83.2597598 L47.7405202,83.2597598 C52.8121614,80.364282 52.6597668,75.7978668 52.5348161,70.6832507 L52.5348161,70.6832507 C52.3853274,64.5547676 58.6070314,61.9431854 61.9681076,57.8700548 L61.9681076,57.8700548 C63.8746547,55.5603525 65.0947803,52.7991149 64.3163408,49.8564282 L64.3163408,49.8564282 C63.3067265,46.0402167 59.8946368,43.6200392 62.4185112,39.4473525 L62.4185112,39.4473525 C65.4266906,34.4750052 72.6402511,30.2274909 71.8673004,23.6705953 L71.8673004,23.6705953 C71.3426368,19.2136919 67.9518565,19.0036606 65.8338296,15.9768329 L65.8338296,15.9768329 C63.439426,12.5533864 67.1540448,7.08646997 64.2888969,3.54259269 L64.2888969,3.54259269 C62.3487713,1.14361097 60.2307444,0.203608355 58.106583,0.203608355 L58.106583,0.203608355 C54.7900628,0.203608355 51.4586906,2.49532637 48.7691839,5.10305483" id="path-19"></path>
        <path d="M48.7691839,5.10305483 C46.522009,7.28269191 43.95713,7.13753264 41.3770762,6.66319582 L41.3770762,6.66319582 C37.3989955,5.9322611 33.3850762,4.41900783 30.4408251,9.43952742 L30.4408251,9.43952742 C27.1611121,15.0332977 28.5588161,21.5869817 22.6954978,25.8222924 L22.6954978,25.8222924 C20.2323229,27.6014569 17.140843,28.7746136 15.8164305,31.6893603 L15.8164305,31.6893603 C15.1196771,33.2218825 14.8662242,34.9156214 14.730296,36.5920183 L14.730296,36.5920183 C14.5372197,38.9662715 14.5133274,41.4291619 14.7777578,43.8002037 L14.7777578,43.8002037 C15.0651121,46.3719634 16.2539193,49.1425144 15.4709596,51.7232663 L15.4709596,51.7232663 C14.7541883,54.0866005 12.5163767,55.608846 10.4584036,56.9885013 L10.4584036,56.9885013 C6.10902242,59.9048538 3.51347085,65.2018825 4.6670852,70.4051358 L4.6670852,70.4051358 C5.40193722,73.7197128 8.31809865,77.7331097 6.71052915,81.1597676 L6.71052915,81.1597676 C5.82037668,83.0577572 3.70945291,84.0494648 2.36728251,85.6625953 L2.36728251,85.6625953 C-1.94787444,90.8491488 1.43806278,98.6231984 3.65747085,103.920869 L3.65747085,103.920869 C6.35569507,110.361509 9.75874439,116.476183 12.892843,122.710324 L12.892843,122.710324 C11.1687175,119.280775 17.8679462,115.427953 19.7244484,113.511016 L19.7244484,113.511016 C24.0689865,109.025209 28.7473722,105.932225 34.016287,102.711102 L34.016287,102.711102 C36.3319103,101.295478 38.517417,99.0798721 38.5128969,96.3761201 L38.5128969,96.3761201 C38.5103139,94.6676084 37.6204843,93.0220418 37.7919283,91.322201 L37.7919283,91.322201 C38.2755874,86.5184569 44.2641794,85.2447807 47.7405202,83.2597598 L47.7405202,83.2597598 C52.8121614,80.364282 52.6597668,75.7978668 52.5348161,70.6832507 L52.5348161,70.6832507 C52.3853274,64.5547676 58.6070314,61.9431854 61.9681076,57.8700548 L61.9681076,57.8700548 C63.8746547,55.5603525 65.0947803,52.7991149 64.3163408,49.8564282 L64.3163408,49.8564282 C63.3067265,46.0402167 59.8946368,43.6200392 62.4185112,39.4473525 L62.4185112,39.4473525 C65.4266906,34.4750052 72.6402511,30.2274909 71.8673004,23.6705953 L71.8673004,23.6705953 C71.3426368,19.2136919 67.9518565,19.0036606 65.8338296,15.9768329 L65.8338296,15.9768329 C63.439426,12.5533864 67.1540448,7.08646997 64.2888969,3.54259269 L64.2888969,3.54259269 C62.3487713,1.14361097 60.2307444,0.203608355 58.106583,0.203608355 L58.106583,0.203608355 C54.7900628,0.203608355 51.4586906,2.49532637 48.7691839,5.10305483" id="path-21"></path>
        <path d="M48.7691839,5.10305483 C46.522009,7.28269191 43.95713,7.13753264 41.3770762,6.66319582 L41.3770762,6.66319582 C37.3989955,5.9322611 33.3850762,4.41900783 30.4408251,9.43952742 L30.4408251,9.43952742 C27.1611121,15.0332977 28.5588161,21.5869817 22.6954978,25.8222924 L22.6954978,25.8222924 C20.2323229,27.6014569 17.140843,28.7746136 15.8164305,31.6893603 L15.8164305,31.6893603 C15.1196771,33.2218825 14.8662242,34.9156214 14.730296,36.5920183 L14.730296,36.5920183 C14.5372197,38.9662715 14.5133274,41.4291619 14.7777578,43.8002037 L14.7777578,43.8002037 C15.0651121,46.3719634 16.2539193,49.1425144 15.4709596,51.7232663 L15.4709596,51.7232663 C14.7541883,54.0866005 12.5163767,55.608846 10.4584036,56.9885013 L10.4584036,56.9885013 C6.10902242,59.9048538 3.51347085,65.2018825 4.6670852,70.4051358 L4.6670852,70.4051358 C5.40193722,73.7197128 8.31809865,77.7331097 6.71052915,81.1597676 L6.71052915,81.1597676 C5.82037668,83.0577572 3.70945291,84.0494648 2.36728251,85.6625953 L2.36728251,85.6625953 C-1.94787444,90.8491488 1.43806278,98.6231984 3.65747085,103.920869 L3.65747085,103.920869 C6.35569507,110.361509 9.75874439,116.476183 12.892843,122.710324 L12.892843,122.710324 C11.1687175,119.280775 17.8679462,115.427953 19.7244484,113.511016 L19.7244484,113.511016 C24.0689865,109.025209 28.7473722,105.932225 34.016287,102.711102 L34.016287,102.711102 C36.3319103,101.295478 38.517417,99.0798721 38.5128969,96.3761201 L38.5128969,96.3761201 C38.5103139,94.6676084 37.6204843,93.0220418 37.7919283,91.322201 L37.7919283,91.322201 C38.2755874,86.5184569 44.2641794,85.2447807 47.7405202,83.2597598 L47.7405202,83.2597598 C52.8121614,80.364282 52.6597668,75.7978668 52.5348161,70.6832507 L52.5348161,70.6832507 C52.3853274,64.5547676 58.6070314,61.9431854 61.9681076,57.8700548 L61.9681076,57.8700548 C63.8746547,55.5603525 65.0947803,52.7991149 64.3163408,49.8564282 L64.3163408,49.8564282 C63.3067265,46.0402167 59.8946368,43.6200392 62.4185112,39.4473525 L62.4185112,39.4473525 C65.4266906,34.4750052 72.6402511,30.2274909 71.8673004,23.6705953 L71.8673004,23.6705953 C71.3426368,19.2136919 67.9518565,19.0036606 65.8338296,15.9768329 L65.8338296,15.9768329 C63.439426,12.5533864 67.1540448,7.08646997 64.2888969,3.54259269 L64.2888969,3.54259269 C62.3487713,1.14361097 60.2307444,0.203608355 58.106583,0.203608355 L58.106583,0.203608355 C54.7900628,0.203608355 51.4586906,2.49532637 48.7691839,5.10305483" id="path-23"></path>
        <path d="M48.7691839,5.10305483 C46.522009,7.28269191 43.95713,7.13753264 41.3770762,6.66319582 L41.3770762,6.66319582 C37.3989955,5.9322611 33.3850762,4.41900783 30.4408251,9.43952742 L30.4408251,9.43952742 C27.1611121,15.0332977 28.5588161,21.5869817 22.6954978,25.8222924 L22.6954978,25.8222924 C20.2323229,27.6014569 17.140843,28.7746136 15.8164305,31.6893603 L15.8164305,31.6893603 C15.1196771,33.2218825 14.8662242,34.9156214 14.730296,36.5920183 L14.730296,36.5920183 C14.5372197,38.9662715 14.5133274,41.4291619 14.7777578,43.8002037 L14.7777578,43.8002037 C15.0651121,46.3719634 16.2539193,49.1425144 15.4709596,51.7232663 L15.4709596,51.7232663 C14.7541883,54.0866005 12.5163767,55.608846 10.4584036,56.9885013 L10.4584036,56.9885013 C6.10902242,59.9048538 3.51347085,65.2018825 4.6670852,70.4051358 L4.6670852,70.4051358 C5.40193722,73.7197128 8.31809865,77.7331097 6.71052915,81.1597676 L6.71052915,81.1597676 C5.82037668,83.0577572 3.70945291,84.0494648 2.36728251,85.6625953 L2.36728251,85.6625953 C-1.94787444,90.8491488 1.43806278,98.6231984 3.65747085,103.920869 L3.65747085,103.920869 C6.35569507,110.361509 9.75874439,116.476183 12.892843,122.710324 L12.892843,122.710324 C11.1687175,119.280775 17.8679462,115.427953 19.7244484,113.511016 L19.7244484,113.511016 C24.0689865,109.025209 28.7473722,105.932225 34.016287,102.711102 L34.016287,102.711102 C36.3319103,101.295478 38.517417,99.0798721 38.5128969,96.3761201 L38.5128969,96.3761201 C38.5103139,94.6676084 37.6204843,93.0220418 37.7919283,91.322201 L37.7919283,91.322201 C38.2755874,86.5184569 44.2641794,85.2447807 47.7405202,83.2597598 L47.7405202,83.2597598 C52.8121614,80.364282 52.6597668,75.7978668 52.5348161,70.6832507 L52.5348161,70.6832507 C52.3853274,64.5547676 58.6070314,61.9431854 61.9681076,57.8700548 L61.9681076,57.8700548 C63.8746547,55.5603525 65.0947803,52.7991149 64.3163408,49.8564282 L64.3163408,49.8564282 C63.3067265,46.0402167 59.8946368,43.6200392 62.4185112,39.4473525 L62.4185112,39.4473525 C65.4266906,34.4750052 72.6402511,30.2274909 71.8673004,23.6705953 L71.8673004,23.6705953 C71.3426368,19.2136919 67.9518565,19.0036606 65.8338296,15.9768329 L65.8338296,15.9768329 C63.439426,12.5533864 67.1540448,7.08646997 64.2888969,3.54259269 L64.2888969,3.54259269 C62.3487713,1.14361097 60.2307444,0.203608355 58.106583,0.203608355 L58.106583,0.203608355 C54.7900628,0.203608355 51.4586906,2.49532637 48.7691839,5.10305483" id="path-25"></path>
        <path d="M48.7691839,5.10305483 C46.522009,7.28269191 43.95713,7.13753264 41.3770762,6.66319582 L41.3770762,6.66319582 C37.3989955,5.9322611 33.3850762,4.41900783 30.4408251,9.43952742 L30.4408251,9.43952742 C27.1611121,15.0332977 28.5588161,21.5869817 22.6954978,25.8222924 L22.6954978,25.8222924 C20.2323229,27.6014569 17.140843,28.7746136 15.8164305,31.6893603 L15.8164305,31.6893603 C15.1196771,33.2218825 14.8662242,34.9156214 14.730296,36.5920183 L14.730296,36.5920183 C14.5372197,38.9662715 14.5133274,41.4291619 14.7777578,43.8002037 L14.7777578,43.8002037 C15.0651121,46.3719634 16.2539193,49.1425144 15.4709596,51.7232663 L15.4709596,51.7232663 C14.7541883,54.0866005 12.5163767,55.608846 10.4584036,56.9885013 L10.4584036,56.9885013 C6.10902242,59.9048538 3.51347085,65.2018825 4.6670852,70.4051358 L4.6670852,70.4051358 C5.40193722,73.7197128 8.31809865,77.7331097 6.71052915,81.1597676 L6.71052915,81.1597676 C5.82037668,83.0577572 3.70945291,84.0494648 2.36728251,85.6625953 L2.36728251,85.6625953 C-1.94787444,90.8491488 1.43806278,98.6231984 3.65747085,103.920869 L3.65747085,103.920869 C6.35569507,110.361509 9.75874439,116.476183 12.892843,122.710324 L12.892843,122.710324 C11.1687175,119.280775 17.8679462,115.427953 19.7244484,113.511016 L19.7244484,113.511016 C24.0689865,109.025209 28.7473722,105.932225 34.016287,102.711102 L34.016287,102.711102 C36.3319103,101.295478 38.517417,99.0798721 38.5128969,96.3761201 L38.5128969,96.3761201 C38.5103139,94.6676084 37.6204843,93.0220418 37.7919283,91.322201 L37.7919283,91.322201 C38.2755874,86.5184569 44.2641794,85.2447807 47.7405202,83.2597598 L47.7405202,83.2597598 C52.8121614,80.364282 52.6597668,75.7978668 52.5348161,70.6832507 L52.5348161,70.6832507 C52.3853274,64.5547676 58.6070314,61.9431854 61.9681076,57.8700548 L61.9681076,57.8700548 C63.8746547,55.5603525 65.0947803,52.7991149 64.3163408,49.8564282 L64.3163408,49.8564282 C63.3067265,46.0402167 59.8946368,43.6200392 62.4185112,39.4473525 L62.4185112,39.4473525 C65.4266906,34.4750052 72.6402511,30.2274909 71.8673004,23.6705953 L71.8673004,23.6705953 C71.3426368,19.2136919 67.9518565,19.0036606 65.8338296,15.9768329 L65.8338296,15.9768329 C63.439426,12.5533864 67.1540448,7.08646997 64.2888969,3.54259269 L64.2888969,3.54259269 C62.3487713,1.14361097 60.2307444,0.203608355 58.106583,0.203608355 L58.106583,0.203608355 C54.7900628,0.203608355 51.4586906,2.49532637 48.7691839,5.10305483" id="path-27"></path>
        <path d="M48.7691839,5.10305483 C46.522009,7.28269191 43.95713,7.13753264 41.3770762,6.66319582 L41.3770762,6.66319582 C37.3989955,5.9322611 33.3850762,4.41900783 30.4408251,9.43952742 L30.4408251,9.43952742 C27.1611121,15.0332977 28.5588161,21.5869817 22.6954978,25.8222924 L22.6954978,25.8222924 C20.2323229,27.6014569 17.140843,28.7746136 15.8164305,31.6893603 L15.8164305,31.6893603 C15.1196771,33.2218825 14.8662242,34.9156214 14.730296,36.5920183 L14.730296,36.5920183 C14.5372197,38.9662715 14.5133274,41.4291619 14.7777578,43.8002037 L14.7777578,43.8002037 C15.0651121,46.3719634 16.2539193,49.1425144 15.4709596,51.7232663 L15.4709596,51.7232663 C14.7541883,54.0866005 12.5163767,55.608846 10.4584036,56.9885013 L10.4584036,56.9885013 C6.10902242,59.9048538 3.51347085,65.2018825 4.6670852,70.4051358 L4.6670852,70.4051358 C5.40193722,73.7197128 8.31809865,77.7331097 6.71052915,81.1597676 L6.71052915,81.1597676 C5.82037668,83.0577572 3.70945291,84.0494648 2.36728251,85.6625953 L2.36728251,85.6625953 C-1.94787444,90.8491488 1.43806278,98.6231984 3.65747085,103.920869 L3.65747085,103.920869 C6.35569507,110.361509 9.75874439,116.476183 12.892843,122.710324 L12.892843,122.710324 C11.1687175,119.280775 17.8679462,115.427953 19.7244484,113.511016 L19.7244484,113.511016 C24.0689865,109.025209 28.7473722,105.932225 34.016287,102.711102 L34.016287,102.711102 C36.3319103,101.295478 38.517417,99.0798721 38.5128969,96.3761201 L38.5128969,96.3761201 C38.5103139,94.6676084 37.6204843,93.0220418 37.7919283,91.322201 L37.7919283,91.322201 C38.2755874,86.5184569 44.2641794,85.2447807 47.7405202,83.2597598 L47.7405202,83.2597598 C52.8121614,80.364282 52.6597668,75.7978668 52.5348161,70.6832507 L52.5348161,70.6832507 C52.3853274,64.5547676 58.6070314,61.9431854 61.9681076,57.8700548 L61.9681076,57.8700548 C63.8746547,55.5603525 65.0947803,52.7991149 64.3163408,49.8564282 L64.3163408,49.8564282 C63.3067265,46.0402167 59.8946368,43.6200392 62.4185112,39.4473525 L62.4185112,39.4473525 C65.4266906,34.4750052 72.6402511,30.2274909 71.8673004,23.6705953 L71.8673004,23.6705953 C71.3426368,19.2136919 67.9518565,19.0036606 65.8338296,15.9768329 L65.8338296,15.9768329 C63.439426,12.5533864 67.1540448,7.08646997 64.2888969,3.54259269 L64.2888969,3.54259269 C62.3487713,1.14361097 60.2307444,0.203608355 58.106583,0.203608355 L58.106583,0.203608355 C54.7900628,0.203608355 51.4586906,2.49532637 48.7691839,5.10305483" id="path-29"></path>
        <path d="M48.7691839,5.10305483 C46.522009,7.28269191 43.95713,7.13753264 41.3770762,6.66319582 L41.3770762,6.66319582 C37.3989955,5.9322611 33.3850762,4.41900783 30.4408251,9.43952742 L30.4408251,9.43952742 C27.1611121,15.0332977 28.5588161,21.5869817 22.6954978,25.8222924 L22.6954978,25.8222924 C20.2323229,27.6014569 17.140843,28.7746136 15.8164305,31.6893603 L15.8164305,31.6893603 C15.1196771,33.2218825 14.8662242,34.9156214 14.730296,36.5920183 L14.730296,36.5920183 C14.5372197,38.9662715 14.5133274,41.4291619 14.7777578,43.8002037 L14.7777578,43.8002037 C15.0651121,46.3719634 16.2539193,49.1425144 15.4709596,51.7232663 L15.4709596,51.7232663 C14.7541883,54.0866005 12.5163767,55.608846 10.4584036,56.9885013 L10.4584036,56.9885013 C6.10902242,59.9048538 3.51347085,65.2018825 4.6670852,70.4051358 L4.6670852,70.4051358 C5.40193722,73.7197128 8.31809865,77.7331097 6.71052915,81.1597676 L6.71052915,81.1597676 C5.82037668,83.0577572 3.70945291,84.0494648 2.36728251,85.6625953 L2.36728251,85.6625953 C-1.94787444,90.8491488 1.43806278,98.6231984 3.65747085,103.920869 L3.65747085,103.920869 C6.35569507,110.361509 9.75874439,116.476183 12.892843,122.710324 L12.892843,122.710324 C11.1687175,119.280775 17.8679462,115.427953 19.7244484,113.511016 L19.7244484,113.511016 C24.0689865,109.025209 28.7473722,105.932225 34.016287,102.711102 L34.016287,102.711102 C36.3319103,101.295478 38.517417,99.0798721 38.5128969,96.3761201 L38.5128969,96.3761201 C38.5103139,94.6676084 37.6204843,93.0220418 37.7919283,91.322201 L37.7919283,91.322201 C38.2755874,86.5184569 44.2641794,85.2447807 47.7405202,83.2597598 L47.7405202,83.2597598 C52.8121614,80.364282 52.6597668,75.7978668 52.5348161,70.6832507 L52.5348161,70.6832507 C52.3853274,64.5547676 58.6070314,61.9431854 61.9681076,57.8700548 L61.9681076,57.8700548 C63.8746547,55.5603525 65.0947803,52.7991149 64.3163408,49.8564282 L64.3163408,49.8564282 C63.3067265,46.0402167 59.8946368,43.6200392 62.4185112,39.4473525 L62.4185112,39.4473525 C65.4266906,34.4750052 72.6402511,30.2274909 71.8673004,23.6705953 L71.8673004,23.6705953 C71.3426368,19.2136919 67.9518565,19.0036606 65.8338296,15.9768329 L65.8338296,15.9768329 C63.439426,12.5533864 67.1540448,7.08646997 64.2888969,3.54259269 L64.2888969,3.54259269 C62.3487713,1.14361097 60.2307444,0.203608355 58.106583,0.203608355 L58.106583,0.203608355 C54.7900628,0.203608355 51.4586906,2.49532637 48.7691839,5.10305483" id="path-31"></path>
    </defs>
    <g id="Page-1" stroke="none" stroke-width="1" fill="none" fill-rule="evenodd">
        <g id="Desktop-HD" transform="translate(-99.000000, -3738.000000)">
            <g id="Group-5" transform="translate(99.000000, 3738.000000)">
                <g id="Group-123" transform="translate(291.500000, 230.500000) scale(-1, 1) translate(-291.500000, -230.500000) ">
                    <g id="Group-12" transform="translate(9.000000, 0.000000)">
                        <path d="M503.443781,227.879052 C503.443781,353.216546 401.837462,454.822865 276.499968,454.822865 C151.162152,454.822865 49.5561549,353.216546 49.5561549,227.879052 C49.5561549,102.541237 151.162152,0.935239401 276.499968,0.935239401 C401.837462,0.935239401 503.443781,102.541237 503.443781,227.879052" id="Fill-1" fill="#E4E9EC"></path>
                        <polygon id="Fill-3" fill="#F6F6F6" points="0 461 516 461 516 422 0 422"></polygon>
                        <path d="M220.480479,193.036474 C210.146968,203.668197 219.520217,229.646738 235.999404,225.887402 C253.706826,221.847546 251.043185,194.252162 235.030779,189.721399 C228.786664,187.954646 223.806492,189.614275 220.480479,193.036474" id="Fill-7" fill="#0074B8"></path>
                        <path d="M302.592228,227.303828 C298.657246,231.113028 294.094635,234.058474 288.676957,235.297324 C278.358243,237.656963 268.667159,233.114297 260.061475,227.882881 C250.864515,222.291808 241.692004,216.627068 233.016513,210.244624 C226.813575,205.681691 220.463622,200.832771 216.59877,194.014107 C212.117226,186.108112 211.855366,176.603611 212.769947,167.778531 C213.394358,161.751561 210.582094,156.343212 209.344208,150.597083 C206.934064,139.411399 209.401792,126.204501 219.834386,119.78828 C225.159415,116.513417 230.730864,116.998534 236.33577,119.40707 C240.629443,121.251995 244.634555,123.818806 249.130575,125.09626 C258.702632,127.815232 269.085363,124.071337 278.460543,122.142449 C285.249932,120.745646 292.674026,120.014432 299.369159,122.255043 C306.822206,124.748828 310.367293,130.20125 314.436745,136.511955 C317.915241,141.905828 323.191695,145.976245 327.394972,150.774337 C333.026578,157.20407 334.739929,165.333644 332.843533,173.620205 C330.061508,185.779339 323.067842,196.23027 316.994869,206.897701 C313.11168,213.718616 308.5777,221.509766 302.592228,227.303828" id="Fill-8" fill="#0B2D4E"></path>
                        <path d="M225.798528,342.75114 C238.189606,323.657209 245.90001,300.221673 235.133496,278.662589 C234.041982,276.477309 232.729464,274.093222 230.411967,273.322761 C225.427613,271.665384 218.666212,273.447257 214.331683,275.990584 C199.297232,284.811803 190.097055,301.410661 181.650932,316.179713 C172.875715,331.523958 165.255065,347.496152 156.43674,362.815626 C152.864952,369.020494 149.2581,375.308359 147.342401,382.206803 C145.664436,388.249536 145.480426,395.167925 147.769935,401.080372 C157.668835,426.641673 184.888157,395.331025 193.173109,385.871561 C204.995429,372.373207 216.035705,357.803928 225.798528,342.75114" id="Fill-9" fill="#0074B8"></path>
                        <path d="M287.549799,226.98403 C286.224091,228.400457 284.676091,229.59234 282.925744,230.459953 C278.409779,232.697991 272.9995,232.588936 268.181462,231.109457 C263.363425,229.6303 259.037904,226.888808 254.922128,223.980357 C243.789203,216.113609 230.019338,205.706429 223.392727,193.614529 C219.308477,186.16116 216.278103,177.361816 220.186385,169.22613 C223.543924,162.236646 230.367734,157.073751 238.175612,156.337711 C238.813856,156.277554 239.486844,156.251175 240.065575,156.527512 C240.720547,156.840522 241.14229,157.484878 241.519961,158.104786 C244.335442,162.728841 246.582809,167.764023 250.024954,171.981454 C253.768849,176.568836 258.400946,179.9994 263.449318,183.062587 C271.611061,188.015414 280.571896,191.668913 288.249166,197.343948 C293.79327,201.442352 293.938355,210.664083 292.588841,217.06422 C291.816128,220.728013 290.090552,224.268918 287.549799,226.98403" id="Fill-10" fill="#061F33"></path>
                        <path d="M349.831224,318.304449 C353.753661,303.979659 355.788386,289.323843 346.898002,279.566489 C342.882917,275.159579 335.730012,272.090923 329.876436,269.909183 C318.45881,265.653148 306.785436,259.932432 294.563249,258.077534 C281.677082,256.121946 267.345536,254.916552 254.502154,257.713375 C246.345558,259.4901 238.713005,262.778153 231.419518,266.324527 C221.628386,271.085302 214.654022,274.285532 211.512985,284.077307 C208.027733,294.940651 205.912905,306.099312 204.732925,317.317165 C201.279199,350.151686 205.848566,383.069848 205.739189,415.920776 C205.728252,419.15028 205.777793,422.507497 207.417476,425.410801 C210.650518,431.135377 219.435386,431.215479 225.763785,431.20615 C246.622217,431.174946 267.480648,431.143741 288.33908,431.112537 C297.017466,431.099669 303.647937,432.01618 311.795526,433.460272 C318.652149,434.674996 324.538217,431.691589 327.827878,426.189626 C330.941571,420.981694 331.178982,414.899392 331.512581,409.046459 C332.810945,386.275547 336.557092,363.608542 342.687326,341.431479 C344.422875,335.151335 347.46676,326.939407 349.831224,318.304449" id="Fill-11" fill="#0088D8"></path>
                    </g>
                    <g id="Group-19" transform="translate(212.000000, 256.000000)">
                        <g id="Group-15">
                            <mask id="mask-2" fill="white">
                                <use xlink:href="#path-1"></use>
                            </mask>
                            <g id="Clip-14"></g>
                            <path d="M96.1107296,20.6192239 C100.528648,13.4921425 101.531974,4.58731429 95.7450644,-2.27872188 C93.0988197,-5.41834575 88.4188841,-5.76983942 84.4168455,-5.84161881 C76.5392704,-5.98292441 68.6439914,-5.18047595 60.9724249,-3.45938011 C53.6607296,-1.81907631 46.2045064,0.959075588 43.0377682,8.03884051 C40.6847639,13.2990141 41.5062232,19.3841678 44.6063305,24.1956398 C47.4218884,28.5661353 52.0924893,31.8013577 57.3041845,32.9913505 C65.7196352,34.9123342 75.5697425,34.6541859 83.5992489,31.4215385 C88.6287554,29.3969092 93.1409871,25.4097736 96.1107296,20.6192239" id="Fill-13" fill="#0074B8" mask="url(#mask-2)"></path>
                        </g>
                        <g id="Group-18">
                            <mask id="mask-4" fill="white">
                                <use xlink:href="#path-3"></use>
                            </mask>
                            <g id="Clip-17"></g>
                            <path d="M14.1363734,174.086511 C22.5370172,178.04693 31.7195279,180.043234 40.8795064,181.576352 C66.5143777,185.866699 92.6433476,186.757986 118.605579,185.520677 C124.156545,185.256091 130.175536,184.7031 134.269957,180.946109 C137.316309,178.150254 138.752253,174.035332 139.773283,170.028561 C143.251288,156.378247 143.201073,142.111209 143.129614,128.025068 C143.073927,117.034775 143.018562,106.04416 142.962876,95.0541888 C142.94324,91.2279935 145.427575,67.938319 139.475536,68.2032268 C138.833691,68.2318741 138.244957,68.5627675 137.722532,68.9364709 C134.761481,71.0547675 133.239914,74.6015703 131.856116,77.9687638 C127.518026,88.5261273 123.875536,105.426149 114.845601,112.817173 C105.362446,120.579646 94.4372318,124.194688 82.9445279,127.916594 C63.0141631,134.370301 40.779721,137.173559 23.8992489,150.462724 C21.0888412,152.676941 18.4084764,155.129028 15.8050429,157.585943 C13.4610515,159.797907 10.2463519,162.086156 8.84420601,165.177498 C6.65858369,169.996373 10.0879828,172.17808 14.1363734,174.086511" id="Fill-16" fill="#0075BA" mask="url(#mask-4)"></path>
                        </g>
                    </g>
                    <g id="Group-56" transform="translate(15.000000, 71.000000)">
                        <path d="M388.752724,281.439072 C391.920462,287.153354 395.068255,292.876321 398.159429,298.63564 C404.43314,310.325099 416.081744,336.296885 397.43304,342.71375 C388.037594,345.946149 382.662701,342.785167 376.452043,335.939802 C352.956028,310.043937 332.920816,281.017007 317.044808,249.871067 C311.135579,238.27876 295.444547,208.06992 314.502769,201.167294 C320.519766,198.987805 327.456813,199.495119 333.093245,202.526458 C335.670993,203.912967 337.95632,205.780411 340.140312,207.727957 C353.894093,219.993895 363.68812,235.819718 372.40125,251.871371 C377.786115,261.79086 383.299337,271.601615 388.752724,281.439072" id="Fill-20" fill="#0088D8"></path>
                        <path d="M293.741875,323.36478 C295.383489,323.088121 297.026711,322.820792 298.673793,322.565366 C306.679514,321.323942 314.653065,319.852827 322.582865,318.154273 C338.286444,314.790622 354.081062,311.897291 370.064195,310.390468 C371.758244,310.230907 373.453259,310.087109 375.149883,309.958109 C382.315012,309.417338 389.822426,309.232363 396.374082,312.569957 C402.92606,315.90755 408.128845,323.823518 406.513611,331.4654 C405.378668,336.833859 401.174748,340.880149 396.507264,342.924525 C391.840424,344.96858 386.705195,345.331775 381.668082,345.672129 C365.350387,346.773615 349.032691,347.87478 332.714673,348.976266 C324.635606,349.517036 316.557504,350.076465 308.479723,350.639111 C300.764815,351.176343 292.932489,352.255311 285.197636,352.260464 C281.92599,352.26271 278.274421,351.669181 275.528748,349.539233 C271.71215,346.578346 269.422963,340.265066 269.061377,335.329288 C268.873828,332.766016 269.390793,329.652967 271.401713,328.063146 C272.478429,327.212261 273.845314,326.9504 275.161372,326.711381 C281.363988,325.584802 287.536364,324.410612 293.741875,323.36478" id="Fill-22" fill="#0088D8"></path>
                        <polygon id="Fill-24" fill="#D3D6D7" points="153.187207 344.304471 230.56115 344.304471 230.56115 329.15614 153.187207 329.15614"></polygon>
                        <path d="M166.464556,330.625871 L146.937623,231.212552 C146.421623,228.586549 144.119569,226.692726 141.443382,226.692726 L11.6304564,226.692726 C9.75078803,226.692726 8.14070075,227.622427 7.13121945,229.001215 L7.11384788,228.984487 L1.11969077,236.071766 L6.43764339,234.904976 L25.6634688,332.784128 C26.1794688,335.41013 28.4815237,337.303953 31.1577107,337.303953 L160.970958,337.303953 C164.4961,337.303953 167.144299,334.085066 166.464556,330.625871" id="Fill-26" fill="#D3D6D7"></path>
                        <path d="M25.2223918,344.304536 L155.035317,344.304536 C158.560781,344.304536 161.20898,341.085648 160.529237,337.626453 L141.001983,238.213134 C140.486304,235.587132 138.18425,233.693309 135.508063,233.693309 L5.69481571,233.693309 C2.16967357,233.693309 -0.478525935,236.912197 0.200895511,240.371391 L19.7281499,339.78471 C20.2441499,342.410713 22.5462047,344.304536 25.2223918,344.304536" id="Fill-27" fill="#FFFFFF"></path>
                        <path d="M275.275155,347.712806 C271.418023,348.509324 268.403734,351.896137 264.564938,353.030758 C261.825377,353.840467 258.89312,353.407786 256.261006,352.420501 C253.840567,351.512676 251.378951,351.027237 248.894495,350.231362 C246.957886,349.611132 244.343143,348.305369 242.262736,348.738372 C236.810315,349.873314 231.372692,353.753609 226.430801,356.272487 C225.319342,356.838993 224.102367,357.422549 222.876706,357.189963 C221.651367,356.957377 220.62934,355.472107 221.326455,354.437212 C219.904881,355.765816 218.022317,358.422379 215.728305,357.392309 C214.79024,356.970888 214.224377,355.728177 214.744238,354.84094 C213.955761,355.705659 213.128038,356.598043 212.03942,357.02815 C210.951123,357.457614 209.523437,357.27103 208.881976,356.292432 C208.580225,355.831442 208.489507,355.264935 208.462163,354.714514 C208.368228,352.8223 208.939238,350.952282 209.728679,349.230245 C213.621519,340.735225 222.423759,334.432883 229.913801,329.371322 C231.238544,328.476043 232.589023,327.568861 234.118043,327.101758 C235.486537,326.683876 236.937706,326.637551 238.368931,326.631117 C247.657253,326.588654 256.951365,328.090329 265.753604,331.056043 C267.658365,331.697504 269.755178,331.151265 271.654148,330.795469 C273.06028,330.532322 274.529143,330.271105 275.901819,330.67226 C277.438238,331.121025 278.629155,332.338322 279.564968,333.636364 C281.286041,336.024312 282.601455,339.185616 282.396213,342.184786 C282.24019,344.462713 282.06744,346.920147 279.387392,347.397866 C278.301347,347.591848 277.183133,347.471856 276.085829,347.586701 C275.8111,347.615332 275.541198,347.658117 275.275155,347.712806" id="Fill-29" fill="#F8A17A"></path>
                        <path d="M276.921337,210.34151 C282.595728,208.521034 287.269968,204.993318 289.020958,199.385839 C290.610457,194.296934 288.104768,188.572036 287.658255,183.436807 C287.230721,178.515827 287.175068,173.566216 287.498694,168.637837 C287.797871,164.081981 288.233125,159.336325 287.53215,154.795268 C287.134212,152.199827 285.709422,152.643767 283.083741,151.61241 C280.45999,150.581697 277.5139,150.571724 274.660137,150.578802 C268.818464,150.592956 253.590995,150.168961 249.980925,155.295183 C248.323871,157.648388 248.193262,160.609597 248.114447,163.410924 C248.019546,166.793555 247.420549,171.173764 246.866267,175.892719 C246.619526,177.993714 246.771689,180.087632 246.449993,182.173829 C246.089694,184.510627 245.202778,186.74963 244.42524,188.98831 C241.487192,197.452126 244.238334,205.501276 253.391222,209.376744 C259.958319,212.157161 269.334142,212.77546 276.921337,210.34151" id="Fill-30" fill="#F8A17A"></path>
                        <path d="M287.502747,154.795268 C287.105131,152.199827 285.680019,152.643767 283.054338,151.61241 C280.430587,150.581697 277.484498,150.571724 274.630413,150.578802 C268.789061,150.592956 253.561592,150.168961 249.951522,155.295183 C248.294468,157.648388 248.163859,160.609597 248.085044,163.410924 C247.989822,166.793555 247.391146,171.173764 246.836864,175.892719 C246.590123,177.993714 246.742286,180.087632 246.42059,182.173829 C246.146183,183.953128 245.566488,185.675166 244.962343,187.384014 C250.624832,189.486939 257.020465,189.95565 262.927443,188.501263 C273.569138,185.881695 281.627939,179.258622 287.375677,170.646505 C287.405916,169.976734 287.425218,169.306964 287.469291,168.637837 C287.768146,164.081981 288.203722,159.336325 287.502747,154.795268" id="Fill-31" fill="#E5785C"></path>
                        <path d="M295.983709,121.446484 C295.937063,113.646327 294.860991,106.247003 292.853931,100.102614 C284.194846,73.5929529 251.124522,67.0435489 231.210267,86.0728182 C209.003287,107.293801 217.501524,158.032943 240.892666,175.856175 C247.146754,180.621776 255.645634,182.296202 263.241514,180.259225 C286.223138,174.095856 296.128794,145.814295 295.983709,121.446484" id="Fill-32" fill="#F8A17A"></path>
                        <path d="M292.854092,100.102742 C284.194685,73.5927599 251.124683,67.0433559 231.210428,86.0726252 C228.694446,88.4769793 226.592486,91.2757324 224.841817,94.3466401 C226.013433,95.3464706 227.246815,96.202503 228.333503,96.8558671 C236.72365,101.899413 245.847585,105.719229 255.328281,108.157361 C259.405131,109.205767 263.696553,110.068234 267.038007,112.628932 C268.954992,114.098116 270.400371,115.999338 271.567805,118.108376 C272.971363,120.643338 273.974411,123.478443 274.915371,126.22476 C276.978406,132.245296 277.885909,138.574338 278.721032,144.857378 C278.807568,145.509134 278.921126,146.215578 279.400453,146.666595 C279.855974,147.095094 280.532822,147.182595 281.15852,147.166189 C284.825852,147.072254 286.594214,143.557084 289.450229,141.694466 C291.169371,140.573034 292.884974,139.430049 294.516615,138.187338 C295.535426,132.606239 296.016361,126.927987 295.98387,121.446613 C295.937224,113.646456 294.86083,106.247131 292.854092,100.102742" id="Fill-33" fill="#E5785C"></path>
                        <path d="M275.308483,117.08178 C276.372009,119.776947 276.998994,122.718212 277.576438,125.563289 C278.841989,131.800326 278.922092,138.193708 278.936246,144.531758 C278.937855,145.189626 278.959087,145.904755 279.375683,146.414 C279.77169,146.89783 280.432131,147.072511 281.053969,147.137494 C284.702643,147.519025 286.911727,144.262177 289.984887,142.785272 C293.172249,141.253356 296.387919,139.70407 299.171875,137.522651 C307.100067,131.309419 305.287954,121.057618 305.037353,111.941725 C304.899346,106.933888 304.750401,101.85399 303.282181,97.0642616 C301.68078,91.8389574 298.560974,87.1766207 294.846032,83.1682915 C284.121338,71.5952865 267.935216,65.5789324 252.264129,66.5662167 C244.505149,67.0548726 235.750199,70.3390646 230.2225,75.9259549 C225.454969,80.7439923 231.26383,87.2892142 235.191092,90.4077329 C242.857101,96.4958252 251.409705,101.465381 260.494715,105.111159 C264.401388,106.678783 268.54483,108.08974 271.526306,111.061566 C273.237406,112.766875 274.42382,114.839239 275.308483,117.08178" id="Fill-34" fill="#0B2D4E"></path>
                        <path d="M291.637374,122.101521 C301.811646,116.538758 304.943354,130.625494 303.193007,137.635888 C302.470157,140.530828 301.326528,143.354995 299.529536,145.73683 C297.10974,148.945424 290.185883,154.267558 286.198142,150.757536 C284.388282,149.16482 284.20202,146.459037 284.146045,144.048893 C283.996778,137.586668 284.741182,125.872439 291.637374,122.101521" id="Fill-35" fill="#F8A17A"></path>
                        <path d="M438.663628,284.952601 C440.094209,281.99493 439.838139,278.886062 438.936104,276.066399 C438.068812,273.183683 436.521134,270.701157 434.845099,267.98701 C433.151371,265.311144 431.422578,262.394007 430.363877,258.881411 C429.290057,255.329568 429.596633,251.347618 430.584239,247.979785 C432.71676,241.109651 437.08378,236.046803 440.091635,230.867501 C441.599102,228.246646 442.833127,225.584935 443.320496,222.639167 C443.868344,219.721708 443.680152,216.613805 442.247319,213.684122 C444.732097,215.858785 445.936204,219.382962 446.09866,222.794868 C446.254361,226.243124 445.383852,229.741566 444.061683,232.817299 C441.450157,239.055301 437.536084,244.119758 436.012855,249.596306 C435.14878,252.306915 434.936783,254.933239 435.549935,257.561815 C436.062396,260.256661 437.471745,262.97692 438.739226,265.926227 C440.084236,268.806691 441.371341,272.135277 441.657007,275.558763 C441.947498,278.9311 441.176394,282.742873 438.663628,284.952601" id="Fill-36" fill="#FFFFFF"></path>
                        <path d="M451.243701,343.987247 L428.750734,343.987247 C424.309081,343.987247 420.70834,340.386506 420.70834,335.944853 L420.70834,288.729245 L459.286096,288.729245 L459.286096,335.944853 C459.286096,340.386506 455.685677,343.987247 451.243701,343.987247" id="Fill-37" fill="#A5CD38"></path>
                        <path d="M461.979976,329.158134 C456.027961,329.158134 451.203168,324.262246 451.203168,318.223052 C451.203168,312.183536 456.027961,307.28797 461.979976,307.28797 C467.931991,307.28797 472.756784,312.183536 472.756784,318.223052 C472.756784,324.262246 467.931991,329.158134 461.979976,329.158134 M461.979976,301.2269 C452.729293,301.2269 445.229921,308.836291 445.229921,318.223052 C445.229921,327.609812 452.729293,335.219204 461.979976,335.219204 C471.230981,335.219204 478.730031,327.609812 478.730031,318.223052 C478.730031,308.836291 471.230981,301.2269 461.979976,301.2269" id="Fill-38" fill="#A5CD38"></path>
                        <path d="M426.476892,323.012909 L426.476892,323.012909 C425.329725,323.012909 424.391338,322.074522 424.391338,320.927355 L424.391338,294.035198 C424.391338,292.887709 425.329725,291.949323 426.476892,291.949323 C427.623737,291.949323 428.562445,292.887709 428.562445,294.035198 L428.562445,320.927355 C428.562445,322.074522 427.623737,323.012909 426.476892,323.012909" id="Fill-39" fill="#FFFFFF"></path>
                        <path d="M450.376924,288.729084 L450.376924,334.217186 C450.376924,339.612989 446.002827,343.987086 440.607024,343.987086 L449.516067,343.987086 C454.912191,343.987086 459.285967,339.612989 459.285967,334.217186 L459.285967,288.729084 L450.376924,288.729084 Z" id="Fill-40" fill="#94B832"></path>
                        <path d="M210.117963,93.8433471 C205.748691,81.605397 196.988594,71.7473521 202.02828,58.0202723 C204.999784,49.926407 212.573145,44.6573521 221.162744,44.5283521 C225.200669,44.4678733 229.243741,45.4760678 232.751512,47.4847362 C236.941277,49.8832998 239.657998,53.800589 244.529115,55.1124643 C255.949636,58.1888409 267.775816,49.4821451 278.692562,47.4528883 C289.501861,45.4438983 300.998302,48.9912374 306.285694,59.3086638 C308.371569,63.3790803 309.258484,68.0803421 312.000619,71.7405965 C316.58028,77.853781 325.490931,79.9438384 329.115477,86.6676015 C335.033714,97.6461127 322.873614,113.50121 316.685474,121.935108" id="Stroke-41" stroke="#0B2D4E" stroke-width="4"></path>
                        <path d="M258.497982,168.504397 C256.004196,168.504397 253.492396,168.320387 250.978343,167.949472 L251.427752,164.898188 C260.559408,166.244806 269.66565,164.9725 277.763054,161.219918 C279.962488,160.201108 281.826393,159.129861 283.461573,157.946021 C286.435006,155.791946 288.987662,152.978395 290.842238,149.80937 L293.504271,151.367342 C291.435767,154.902457 288.588116,158.041564 285.27079,160.44431 C283.472832,161.746213 281.44068,162.915577 279.059488,164.018993 C272.650021,166.988889 265.652174,168.504397 258.497982,168.504397" id="Fill-42" fill="#0071C7"></path>
                        <path d="M242.059618,162.466618 C245.779707,159.274109 254.053401,159.547551 256.781381,162.861982 C258.803239,165.318451 258.185904,168.43697 255.960092,170.513838 C253.32669,172.97095 250.069842,172.828117 246.785328,172.087573 C242.673092,171.160446 237.575822,166.314421 242.059618,162.466618" id="Fill-43" fill="#0074B8"></path>
                        <path d="M238.836226,66.0051793 C239.732792,66.0347753 240.624533,66.1042616 241.519491,66.0785259 C242.41284,66.0949324 243.305867,66.0515035 244.196964,66.0141868 C245.979159,65.9022367 247.753954,65.7191918 249.521029,65.4628002 C253.058396,64.9786481 256.574209,64.3008352 260.143423,63.8285858 C263.70556,63.3373564 267.34587,63.1121693 270.968164,63.3511893 C271.875346,63.4055559 272.782206,63.5020646 273.685528,63.6387853 C274.589171,63.7726107 275.490241,63.9427878 276.380373,64.1721569 C278.161924,64.6164187 279.906802,65.279112 281.523323,66.1978751 C282.328528,66.6698027 283.098024,67.2076781 283.809937,67.8121444 C284.515416,68.4243314 285.169745,69.0937803 285.764239,69.816309 C286.345865,70.5491319 286.863151,71.3343913 287.300658,72.1666182 C287.732695,73.0020621 288.067902,73.8912292 288.294376,74.8096706 C288.531144,75.7268252 288.612211,76.6838701 288.587119,77.6319075 C288.572643,78.5879873 288.381877,79.5115758 288.183069,80.3939873 C287.980401,81.2773638 287.760039,82.1327529 287.625249,82.9813863 C287.482416,83.8271244 287.466653,84.670289 287.55158,85.5211743 C287.725939,87.2229449 288.341343,88.8806431 289.093468,90.4733589 C289.845593,92.0734736 290.753418,93.6108576 291.594009,95.2080771 C292.418515,96.8104436 293.148765,98.4855135 293.569221,100.251623 C293.776715,101.133391 293.902498,102.037678 293.896001,102.943252 C293.88384,103.84786 293.737468,104.74893 293.444082,105.596277 C293.909897,103.854616 293.735538,102.028349 293.239483,100.338803 C292.736673,98.6396057 291.936937,97.0436731 291.040693,95.5111145 C290.147343,93.9753389 289.175179,92.4582217 288.337483,90.847491 C287.501396,89.2409424 286.804603,87.5037853 286.554323,85.6392367 C286.433366,84.7130746 286.426932,83.7495958 286.55754,82.8247204 C286.683323,81.9008102 286.900468,81.0167903 287.082226,80.1520721 C287.261411,79.2870322 287.419042,78.4409723 287.414538,77.6026332 C287.421615,76.764294 287.338618,75.9191993 287.112144,75.1046656 C286.891139,74.2907753 286.596144,73.4923264 286.198528,72.7392367 C285.797373,71.9887204 285.322872,71.2761643 284.787892,70.6086456 C284.240044,69.9510995 283.636221,69.3401993 282.986074,68.7820571 C282.329171,68.2303489 281.622084,67.74491 280.882505,67.3125509 C279.388229,66.4529798 277.75884,65.8202042 276.069615,65.3891319 C274.381356,64.9487304 272.635835,64.7058501 270.878732,64.5626955 C267.352625,64.26191 263.806573,64.4526756 260.262451,64.8216606 C256.718972,65.2035135 253.171954,65.7481444 249.592767,66.0859249 C247.80253,66.2480596 246.003608,66.3368476 244.206937,66.3532541 C242.408336,66.3641918 240.61263,66.2371219 238.836226,66.0051793" id="Fill-44" fill="#73B8D4"></path>
                        <path d="M295.911134,118.094286 C281.549349,121.777059 275.999453,148.83135 292.021189,154.217502 C309.237059,160.004809 321.355017,135.069849 310.055132,122.853774 C305.648543,118.089782 300.533581,116.908837 295.911134,118.094286" id="Fill-45" fill="#0074B8"></path>
                        <path d="M300.618766,121.566509 C290.705067,123.159546 284.597995,144.220968 294.815052,150.017925 C305.793564,156.24692 316.096192,137.490449 309.637828,126.687584 C307.119272,122.474656 303.809666,121.053726 300.618766,121.566509" id="Fill-46" fill="#005A8F"></path>
                        <path d="M302.619938,119.98724 L298.789829,119.543943 C301.387844,97.0902224 300.280889,68.4010728 280.253719,59.2375691 C270.768841,54.898215 262.114903,51.7877387 246.694096,54.821008 C244.442225,54.5192574 242.706998,53.6838135 242.706998,53.6838135 C256.652188,46.871584 271.62037,51.047195 281.857694,55.7310853 C303.991327,65.8583895 305.364968,96.2634643 302.619938,119.98724" id="Fill-47" fill="#0074B8"></path>
                        <path d="M355.553335,96.4966938 L487.227914,96.4966938 C494.482153,96.4966938 500.41744,90.561407 500.41744,83.3071676 L500.41744,13.7118284 C500.41744,6.45758903 494.482153,0.522302244 487.227914,0.522302244 L355.553335,0.522302244 C348.299096,0.522302244 342.363809,6.45758903 342.363809,13.7118284 L342.363809,83.3071676 C342.363809,90.561407 348.299096,96.4966938 355.553335,96.4966938" id="Fill-48" fill="#FFDB94"></path>
                        <polygon id="Fill-49" fill="#FFDB94" points="363.16723 121.760009 363.16723 77.6558416 397.708991 96.4965973"></polygon>
                        <path d="M441.784785,52.8315127 L369.33343,52.8315127 C367.741036,52.8315127 366.438169,51.5286449 366.438169,49.9362509 L366.438169,47.3530339 C366.438169,45.7609616 367.741036,44.4577721 369.33343,44.4577721 L441.784785,44.4577721 C443.377179,44.4577721 444.680046,45.7609616 444.680046,47.3530339 L444.680046,49.9362509 C444.680046,51.5286449 443.377179,52.8315127 441.784785,52.8315127" id="Fill-50" fill="#FFFFFF"></path>
                        <path d="M473.447915,52.8315127 L453.593818,52.8315127 C452.001745,52.8315127 450.698556,51.5286449 450.698556,49.9362509 L450.698556,47.3530339 C450.698556,45.7609616 452.001745,44.4577721 453.593818,44.4577721 L473.447915,44.4577721 C475.040309,44.4577721 476.343177,45.7609616 476.343177,47.3530339 L476.343177,49.9362509 C476.343177,51.5286449 475.040309,52.8315127 473.447915,52.8315127" id="Fill-51" fill="#FFFFFF"></path>
                        <path d="M400.996625,25.4424643 L473.447979,25.4424643 C475.040373,25.4424643 476.343241,26.7453322 476.343241,28.3377262 L476.343241,30.9209431 C476.343241,32.5133372 475.040373,33.816205 473.447979,33.816205 L400.996625,33.816205 C399.404231,33.816205 398.101363,32.5133372 398.101363,30.9209431 L398.101363,28.3377262 C398.101363,26.7453322 399.404231,25.4424643 400.996625,25.4424643" id="Fill-52" fill="#FFFFFF"></path>
                        <path d="M369.333495,25.4424643 L389.187592,25.4424643 C390.779986,25.4424643 392.082854,26.7453322 392.082854,28.3377262 L392.082854,30.9209431 C392.082854,32.5133372 390.779986,33.816205 389.187592,33.816205 L369.333495,33.816205 C367.741101,33.816205 366.438233,32.5133372 366.438233,30.9209431 L366.438233,28.3377262 C366.438233,26.7453322 367.741101,25.4424643 369.333495,25.4424643" id="Fill-53" fill="#FFFFFF"></path>
                        <path d="M418.495459,70.2156621 L369.333591,70.2156621 C367.741197,70.2156621 366.438329,68.9127943 366.438329,67.3204002 L366.438329,64.7371833 C366.438329,63.1447893 367.741197,61.8419214 369.333591,61.8419214 L418.495459,61.8419214 C420.087853,61.8419214 421.390721,63.1447893 421.390721,64.7371833 L421.390721,67.3204002 C421.390721,68.9127943 420.087853,70.2156621 418.495459,70.2156621" id="Fill-54" fill="#FFFFFF"></path>
                        <path d="M493.9243,123.688157 C490.38436,123.667568 486.948328,123.212369 484.523385,119.739985 C479.764218,112.923895 472.499363,106.80492 464.352418,113.735855 C459.653729,117.733246 463.186914,125.956755 459.143198,129.912648 C455.566906,133.410446 451.019094,132.832359 449.189931,138.638645 C446.49959,147.179346 454.97949,154.663598 457.70168,162.049411 C459.986363,168.247523 454.848238,170.609092 452.540071,175.439032 C450.76045,179.16266 451.675353,183.151044 453.614535,186.710608 C457.034161,192.987536 464.615887,198.041054 462.859428,206.169019 C461.39346,212.951975 460.030435,218.997281 466.015585,224.138623 C470.118493,227.6628 477.731423,230.87461 477.151084,237.397635 C476.946163,239.705802 475.3483,241.673294 474.910473,243.94897 C474.217218,247.550032 476.550156,251.055229 479.259478,253.527139 C485.42349,259.151346 490.83763,264.455466 495.455251,271.531807 C497.428211,274.555426 505.327128,281.382775 502.170328,285.516887 C507.908737,278.002396 513.973345,270.715987 519.187069,262.816426 C523.475595,256.319137 529.939749,246.816566 525.539273,238.814705 C524.170779,236.326067 521.625522,234.470847 520.927764,231.717453 C519.668647,226.74468 524.554562,222.134458 526.370535,217.904159 C529.222368,211.262428 527.129415,203.548164 522.106136,198.562523 C519.729769,196.203528 517.150734,193.609695 516.801695,190.278857 C516.420485,186.642408 518.700665,183.251735 519.734595,179.897735 C520.688423,176.804952 521.282595,173.517543 521.630991,170.305089 C521.876767,168.036812 521.971667,165.716421 521.437974,163.498007 C520.423667,159.27961 516.62444,156.934448 513.812498,153.940748 C507.11833,146.814865 510.637039,138.435655 507.712502,130.153598 C505.087465,122.718887 499.382512,123.720004 493.9243,123.688157" id="Fill-55" fill="#A5CD38"></path>
                    </g>
                    <g id="Group-78" transform="translate(464.000000, 182.000000)">
                        <g id="Group-59">
                            <mask id="mask-6" fill="white">
                                <use xlink:href="#path-5"></use>
                            </mask>
                            <g id="Clip-58"></g>
                            <path d="M54.2297106,183.254252 C56.7117878,154.816271 54.4320276,126.151913 49.1782065,98.1448486 C44.1658813,71.4276468 37.5876862,44.6186101 27.6137756,19.2914541 C24.3185764,10.9232431 20.618422,2.71012385 16.4137593,-5.24194037" id="Stroke-57" stroke="#7A9C1F" stroke-width="2" mask="url(#mask-6)"></path>
                        </g>
                        <g id="Group-62">
                            <mask id="mask-8" fill="white">
                                <use xlink:href="#path-7"></use>
                            </mask>
                            <g id="Clip-61"></g>
                            <path d="M-6.03983902,32.891844 C7.95921789,37.8326239 21.3118236,44.6017523 33.5715959,52.9728532 C36.6818195,55.0966147 38.4137179,55.7465229 41.0065878,58.4778073" id="Stroke-60" stroke="#7A9C1F" stroke-width="2" mask="url(#mask-8)"></path>
                        </g>
                        <g id="Group-65">
                            <mask id="mask-10" fill="white">
                                <use xlink:href="#path-9"></use>
                            </mask>
                            <g id="Clip-64"></g>
                            <path d="M47.6454459,88.9449541 C34.2090232,80.2630275 18.971015,74.3817431 3.18546626,71.7856422" id="Stroke-63" stroke="#7A9C1F" stroke-width="2" mask="url(#mask-10)"></path>
                        </g>
                        <g id="Group-68">
                            <mask id="mask-12" fill="white">
                                <use xlink:href="#path-11"></use>
                            </mask>
                            <g id="Clip-67"></g>
                            <path d="M52.9592557,125.630413 C40.454776,114.795505 25.212272,107.145596 9.05099146,103.593899" id="Stroke-66" stroke="#7A9C1F" stroke-width="2" mask="url(#mask-12)"></path>
                        </g>
                        <g id="Group-71">
                            <mask id="mask-14" fill="white">
                                <use xlink:href="#path-13"></use>
                            </mask>
                            <g id="Clip-70"></g>
                            <path d="M40.3116126,57.5410275 C41.2888362,42.4952018 45.03395,27.6327248 51.3035313,13.9201101" id="Stroke-69" stroke="#7A9C1F" stroke-width="2" mask="url(#mask-14)"></path>
                        </g>
                        <g id="Group-74">
                            <mask id="mask-16" fill="white">
                                <use xlink:href="#path-15"></use>
                            </mask>
                            <g id="Clip-73"></g>
                            <path d="M47.474215,87.7050872 C53.8276134,74.1135275 63.0057435,61.8503624 74.2555362,51.9225642" id="Stroke-72" stroke="#7A9C1F" stroke-width="2" mask="url(#mask-16)"></path>
                        </g>
                        <g id="Group-77">
                            <mask id="mask-18" fill="white">
                                <use xlink:href="#path-17"></use>
                            </mask>
                            <g id="Clip-76"></g>
                            <path d="M53.7915817,126.67367 C54.6695736,122.474633 56.2097524,118.414312 58.3372931,114.68922 C60.8123053,110.355642 64.050663,106.512064 67.3481102,102.766101 C69.7226061,100.068532 72.1382077,97.4066055 74.5929882,94.7816055" id="Stroke-75" stroke="#7A9C1F" stroke-width="2" mask="url(#mask-18)"></path>
                        </g>
                    </g>
                    <path d="M552.72437,246.485755 C555.281098,246.962002 557.823426,247.107745 560.050883,244.919335 C564.423559,240.623769 570.507547,237.182995 575.431568,243.352591 C578.271487,246.910733 574.589991,252.399655 576.963044,255.83656 C579.062185,258.875893 582.42273,259.086448 582.943035,263.561614 C583.708453,270.144902 576.559216,274.409836 573.57818,279.401876 C571.076811,283.591036 574.458475,286.021278 575.459087,289.852851 C576.230585,292.80706 575.021339,295.579735 573.131793,297.898734 C569.800367,301.98826 563.634462,304.610677 563.782617,310.763506 C563.906134,315.89871 564.05749,320.483183 559.031072,323.390638 C555.585409,325.383649 549.650537,326.662453 549.171191,331.485533 C549.001276,333.192216 549.883171,334.844406 549.885731,336.559795 C549.890211,339.27443 547.724192,341.498954 545.429217,342.920277 C540.207285,346.154043 535.570616,349.259477 531.264818,353.763663 C529.42487,355.688316 522.785058,359.556647 524.493809,363 C521.387977,356.740443 518.015273,350.601479 515.341108,344.134914 C513.141491,338.816241 509.785746,331.010576 514.062425,325.802823 C515.392627,324.183522 517.484408,323.187823 518.366943,321.282516 C519.959858,317.841742 517.0697,313.81219 516.34172,310.484272 C515.198713,305.259751 517.7708,299.941723 522.081398,297.013632 C524.12102,295.628101 526.338877,294.10005 527.049577,291.727203 C527.824915,289.135741 526.647028,286.35436 526.362237,283.772248 C526.100164,281.391663 526.123843,278.918859 526.315198,276.535048 C526.449914,274.851904 526.701107,273.151347 527.391327,271.612656 C528.70425,268.686177 531.768164,267.507975 534.209374,265.721972 C540.02041,261.469613 538.635169,254.889226 541.885637,249.273585 C544.803315,244.232534 548.781762,245.751879 552.72437,246.485755" id="Fill-79" fill="#7A9C1F"></path>
                    <g id="Group-102" transform="translate(511.000000, 240.000000)">
                        <g id="Group-83">
                            <mask id="mask-20" fill="white">
                                <use xlink:href="#path-19"></use>
                            </mask>
                            <g id="Clip-82"></g>
                            <path d="M11.1976466,128.746187 C13.3453776,107.770994 18.9972161,87.2916548 26.7267229,67.7002919 C34.1007498,49.011036 42.6293596,30.4720778 53.4277453,13.4781666 C56.9957812,7.86352167 60.8372879,2.41715875 65.0103821,-2.77003708" id="Stroke-81" stroke="#A5CD38" stroke-width="2" mask="url(#mask-20)"></path>
                        </g>
                        <g id="Group-86">
                            <mask id="mask-22" fill="white">
                                <use xlink:href="#path-21"></use>
                            </mask>
                            <g id="Clip-85"></g>
                            <path d="M76.0781381,28.0035995 C65.1812771,29.6501295 54.5013848,32.7126047 44.3955552,37.0888997 C41.8316448,38.1991112 40.4778511,38.4306595 38.2067839,40.0534245" id="Stroke-84" stroke="#A5CD38" stroke-width="2" mask="url(#mask-22)"></path>
                        </g>
                        <g id="Group-89">
                            <mask id="mask-24" fill="white">
                                <use xlink:href="#path-23"></use>
                            </mask>
                            <g id="Clip-88"></g>
                            <path d="M29.12513,61.2381352 C40.1324126,56.7992162 52.0637489,54.6417384 63.9369686,54.942976" id="Stroke-87" stroke="#A5CD38" stroke-width="2" mask="url(#mask-24)"></path>
                        </g>
                        <g id="Group-92">
                            <mask id="mask-26" fill="white">
                                <use xlink:href="#path-25"></use>
                            </mask>
                            <g id="Clip-91"></g>
                            <path d="M20.1437274,87.1169499 C30.7713148,80.9871822 42.9522296,77.547036 55.2322655,77.2075817" id="Stroke-90" stroke="#A5CD38" stroke-width="2" mask="url(#mask-26)"></path>
                        </g>
                        <g id="Group-95">
                            <mask id="mask-28" fill="white">
                                <use xlink:href="#path-27"></use>
                            </mask>
                            <g id="Clip-94"></g>
                            <path d="M38.8440323,39.4699292 C40.22527,28.4191982 39.5627408,17.1186133 36.8990637,6.30264204" id="Stroke-93" stroke="#A5CD38" stroke-width="2" mask="url(#mask-28)"></path>
                        </g>
                        <g id="Group-98">
                            <mask id="mask-30" fill="white">
                                <use xlink:href="#path-29"></use>
                            </mask>
                            <g id="Clip-97"></g>
                            <path d="M29.422461,60.3618807 C26.6806493,49.6223428 21.6939229,39.4550922 14.8716807,30.6954368" id="Stroke-96" stroke="#A5CD38" stroke-width="2" mask="url(#mask-30)"></path>
                        </g>
                        <g id="Group-101">
                            <mask id="mask-32" fill="white">
                                <use xlink:href="#path-31"></use>
                            </mask>
                            <g id="Clip-100"></g>
                            <path d="M19.3917309,87.7586052 C19.3355516,84.5907932 18.7776323,81.4319734 17.7444484,78.4346914 C16.5427265,74.9479786 14.7159283,71.7114407 12.8326278,68.5375269 C11.4759283,66.2515896 10.0853274,63.9862057 8.66017937,61.7420178" id="Stroke-99" stroke="#A5CD38" stroke-width="2" mask="url(#mask-32)"></path>
                        </g>
                    </g>
                    <g id="Group-122" transform="translate(0.000000, 55.000000)">
                        <polygon id="Fill-103" fill="#FDCF75" points="497.333506 306.631303 549.860955 306.631303 540.645658 359.197677 506.548802 359.197677"></polygon>
                        <polygon id="Fill-105" fill="#FEE9BF" points="490.902743 306.631142 556.29191 306.631142 556.29191 291.876244 490.902743 291.876244"></polygon>
                        <polygon id="Fill-107" fill="#231F20" points="548.638961 313.602096 498.555435 313.602096 497.333634 306.631271 549.861083 306.631271"></polygon>
                        <path d="M566.870393,378.681728 L10.3003753,378.681728 C4.63080923,378.681728 0.0344201995,374.300231 0.0344201995,368.895099 C0.0344201995,363.489967 4.63080923,359.108471 10.3003753,359.108471 L566.870393,359.108471 C572.539959,359.108471 577.136026,363.489967 577.136026,368.895099 C577.136026,374.300231 572.539959,378.681728 566.870393,378.681728" id="Fill-108" fill="#B1CEF2"></path>
                        <path d="M132.53209,29.5136317 L111.740249,29.5136317 C102.901015,29.5136317 95.6683289,36.7459958 95.6683289,45.5855519 L95.6683289,45.5855519 C95.6683289,51.0514845 98.4355559,55.900083 102.635937,58.8072476 L102.635937,70.118714 L114.20476,61.6574721 L132.53209,61.6574721 C141.371646,61.6574721 148.60401,54.425108 148.60401,45.5855519 L148.60401,45.5855519 C148.60401,36.7459958 141.371646,29.5136317 132.53209,29.5136317" id="Fill-109" fill="#B1CEF2"></path>
                        <path d="M112.929848,45.5857127 C112.929848,46.9326529 111.837691,48.0244883 110.490751,48.0244883 C109.14381,48.0244883 108.051975,46.9326529 108.051975,45.5857127 C108.051975,44.2387726 109.14381,43.1466155 110.490751,43.1466155 C111.837691,43.1466155 112.929848,44.2387726 112.929848,45.5857127" id="Fill-110" fill="#FFFFFF"></path>
                        <path d="M124.575138,45.5857127 C124.575138,46.9326529 123.482981,48.0244883 122.136041,48.0244883 C120.7891,48.0244883 119.697265,46.9326529 119.697265,45.5857127 C119.697265,44.2387726 120.7891,43.1466155 122.136041,43.1466155 C123.482981,43.1466155 124.575138,44.2387726 124.575138,45.5857127" id="Fill-111" fill="#FFFFFF"></path>
                        <path d="M136.220428,45.5857127 C136.220428,46.9326529 135.128271,48.0244883 133.781331,48.0244883 C132.434391,48.0244883 131.342555,46.9326529 131.342555,45.5857127 C131.342555,44.2387726 132.434391,43.1466155 133.781331,43.1466155 C135.128271,43.1466155 136.220428,44.2387726 136.220428,45.5857127" id="Fill-112" fill="#FFFFFF"></path>
                        <path d="M264.318329,32.5091017 L224.11794,32.5091017 C221.994748,32.5091017 220.257591,30.7719446 220.257591,28.6487526 L220.257591,4.39578753 C220.257591,2.27259551 221.994748,0.535438404 224.11794,0.535438404 L264.318329,0.535438404 C266.441521,0.535438404 268.178678,2.27259551 268.178678,4.39578753 L268.178678,28.6487526 C268.178678,30.7719446 266.441521,32.5091017 264.318329,32.5091017" id="Fill-114" fill="#B1CEF2"></path>
                        <path d="M221.031269,1.56206608 L242.012266,21.906106 C243.214122,23.071288 245.222147,23.071288 246.424002,21.906106 L267.404678,1.56206608" id="Stroke-115" stroke="#FFFFFF" stroke-width="4"></path>
                        <line x1="221.031269" y1="31.4785172" x2="238.246496" y2="18.2548913" id="Stroke-116" stroke="#FFFFFF" stroke-width="4"></line>
                        <line x1="267.404774" y1="31.4785172" x2="250.189547" y2="18.2548913" id="Stroke-117" stroke="#FFFFFF" stroke-width="4"></line>
                        <path d="M182.814971,157.278996 L135.179549,157.278996 C133.047671,157.278996 131.3192,155.550524 131.3192,153.418646 L131.3192,122.689946 C131.3192,120.558068 133.047671,118.829597 135.179549,118.829597 L182.814971,118.829597 C184.946848,118.829597 186.67532,120.558068 186.67532,122.689946 L186.67532,153.418646 C186.67532,155.550524 184.946848,157.278996 182.814971,157.278996" id="Fill-118" fill="#B1CEF2"></path>
                        <polygon id="Fill-119" fill="#B1CEF2" points="158.997389 169.427739 168.703271 156.337617 149.291506 156.337617"></polygon>
                        <path d="M149,142.998245 L146.605297,142.998245 L146.605297,136.442086 L146.628459,135.364726 L146.667384,134.186677 C146.269446,134.584614 145.99311,134.845509 145.838052,134.969362 L144.53615,136.015517 L143.381262,134.57432 L147.031544,131.66812 L149,131.66812 L149,142.998245 Z" id="Fill-120" fill="#FFFFFF" transform="translate(146.190631, 137.333183) scale(-1, 1) translate(-146.190631, -137.333183) "></path>
                        <path d="M170.927027,131.286847 L163.070895,131.286847 C159.730728,131.286847 156.997923,134.019652 156.997923,137.359498 C156.997923,139.424784 158.043434,141.257163 159.630681,142.355433 L159.630681,146.629483 L164.001883,143.43247 L170.927027,143.43247 C174.267195,143.43247 177,140.699665 177,137.359498 C177,134.019652 174.267195,131.286847 170.927027,131.286847" id="Fill-121" fill="#FFFFFF" transform="translate(166.998961, 138.958165) scale(-1, 1) translate(-166.998961, -138.958165) "></path>
                    </g>
                </g>
            </g>
        </g>
    </g>
</svg>