<svg xmlns="http://www.w3.org/2000/svg" viewBox="0 0 500 500"><g id="freepik--background-complete--inject-4"><circle cx="108.2" cy="96.38" r="32.8" style="fill:#ebebeb"></circle><circle cx="109.7" cy="97.11" r="31.3" transform="translate(-36.54 106.01) rotate(-45)" style="fill:#dbdbdb"></circle><circle cx="109.7" cy="97.11" r="29.32" transform="translate(-28.46 48.36) rotate(-22.08)" style="fill:#fff"></circle><rect x="109.33" y="69.92" width="0.75" height="4.44" style="fill:#ebebeb"></rect><rect x="96.84" y="73.26" width="0.75" height="4.44" transform="translate(-24.72 58.71) rotate(-29.99)" style="fill:#ebebeb"></rect><rect x="87.7" y="82.4" width="0.75" height="4.44" transform="translate(-29.25 118.6) rotate(-60.01)" style="fill:#ebebeb"></rect><rect x="82.51" y="96.74" width="4.44" height="0.75" style="fill:#ebebeb"></rect><rect x="85.85" y="109.22" width="4.44" height="0.75" transform="matrix(0.87, -0.5, 0.5, 0.87, -43, 58.73)" style="fill:#ebebeb"></rect><rect x="95" y="118.36" width="4.44" height="0.75" transform="translate(-54.21 143.65) rotate(-60.03)" style="fill:#ebebeb"></rect><rect x="109.33" y="119.86" width="0.75" height="4.44" style="fill:#ebebeb"></rect><rect x="121.81" y="116.52" width="0.75" height="4.44" transform="translate(-43 77.02) rotate(-30)" style="fill:#ebebeb"></rect><rect x="130.95" y="107.38" width="0.75" height="4.44" transform="translate(-29.25 168.53) rotate(-60)" style="fill:#ebebeb"></rect><rect x="132.45" y="96.74" width="4.45" height="0.75" style="fill:#ebebeb"></rect><rect x="129.11" y="84.25" width="4.44" height="0.75" transform="matrix(0.87, -0.5, 0.5, 0.87, -24.72, 77.01)" style="fill:#ebebeb"></rect><rect x="119.97" y="75.11" width="4.44" height="0.75" transform="translate(-4.24 143.64) rotate(-60.03)" style="fill:#ebebeb"></rect><rect x="93.77" y="100.15" width="28.37" height="0.75" transform="translate(-30.59 151.17) rotate(-63.04)" style="fill:#ebebeb"></rect><rect x="109.95" y="86.87" width="1" height="27.94" transform="translate(-17.64 23.63) rotate(-11.32)" style="fill:#dbdbdb"></rect><rect x="319.54" y="86.81" width="142.13" height="268.92" style="fill:#ebebeb"></rect><rect x="331.71" y="100.19" width="117.79" height="170.74" style="fill:#fff"></rect><polygon points="339.23 382.79 329.84 382.79 329.84 355.73 346.55 355.73 339.23 382.79" style="fill:#ebebeb"></polygon><polygon points="346.55 355.73 343.85 365.7 329.83 365.7 329.83 355.73 346.55 355.73" style="fill:#c7c7c7"></polygon><polygon points="441.97 382.79 451.36 382.79 451.36 355.73 434.65 355.73 441.97 382.79" style="fill:#ebebeb"></polygon><polygon points="434.65 355.73 437.35 365.7 451.37 365.7 451.37 355.73 434.65 355.73" style="fill:#c7c7c7"></polygon><path d="M449.5,283.12c-8.83.18-17.65.28-26.47.35s-17.65.08-26.47.13l.48-.48c0,4.43,0,8.87,0,13.31l0,13.31c-.1,8.88-.19,17.75-.41,26.63-.23-8.88-.32-17.75-.42-26.63l-.05-13.31c0-4.44,0-8.88,0-13.31v-.49h.48c8.82.05,17.64,0,26.47.13S440.67,282.93,449.5,283.12Z" style="fill:#c7c7c7"></path><path d="M396.56,344c8.82-.19,17.64-.29,26.47-.36s17.64-.08,26.47-.13L449,344c0-4.36,0-8.71,0-13.06l.06-13.06c.09-8.71.18-17.41.41-26.12.22,8.71.31,17.41.4,26.12l.06,13.06c0,4.35.05,8.7,0,13.06v.48h-.48c-8.83-.05-17.65,0-26.47-.12S405.38,344.15,396.56,344Z" style="fill:#c7c7c7"></path><rect x="402.49" y="304.92" width="4.01" height="15.36" transform="translate(808.98 625.21) rotate(180)" style="fill:#c7c7c7"></rect><path d="M331.71,283.12c8.82-.19,17.64-.29,26.47-.36s17.64-.08,26.47-.13h.47v.49c0,4.43,0,8.87,0,13.31l-.06,13.31c-.09,8.88-.18,17.75-.41,26.63-.23-8.88-.32-17.75-.42-26.63l-.05-13.31c0-4.44,0-8.88,0-13.31l.48.48c-8.83-.05-17.65,0-26.47-.13S340.53,283.3,331.71,283.12Z" style="fill:#c7c7c7"></path><path d="M384.65,344c-8.83.18-17.65.28-26.47.36s-17.65.07-26.47.12h-.48V344c0-4.36,0-8.71,0-13.06l.06-13.06c.09-8.71.18-17.41.41-26.12.22,8.71.31,17.41.4,26.12l.06,13.06c0,4.35.05,8.7,0,13.06l-.48-.49c8.82,0,17.64,0,26.47.13S375.82,343.78,384.65,344Z" style="fill:#c7c7c7"></path><rect x="374.71" y="304.92" width="4.01" height="15.36" style="fill:#c7c7c7"></rect><rect x="331.71" y="154.72" width="117.79" height="1.83" style="fill:#c7c7c7"></rect><rect x="331.71" y="191.78" width="117.79" height="1.83" style="fill:#c7c7c7"></rect><rect x="331.71" y="228.84" width="117.79" height="1.83" style="fill:#c7c7c7"></rect><rect x="389.25" y="100.19" width="2.71" height="170.74" style="fill:#ebebeb"></rect><polygon points="174.93 280.1 177.32 294.45 193.53 381.99 196.14 381.99 184.36 294.45 182.61 280.1 174.93 280.1" style="fill:#ebebeb"></polygon><polygon points="182.61 280.1 174.93 280.1 177.32 294.45 184.36 294.45 182.61 280.1" style="fill:#c7c7c7"></polygon><polygon points="124.03 381.99 126.64 381.99 142.85 294.45 145.24 280.1 137.56 280.1 135.81 294.45 124.03 381.99" style="fill:#ebebeb"></polygon><polygon points="137.56 280.1 135.81 294.45 142.85 294.45 145.24 280.1 137.56 280.1" style="fill:#c7c7c7"></polygon><polygon points="75.41 381.99 78.02 381.99 94.23 294.45 96.62 280.1 88.94 280.1 87.19 294.45 75.41 381.99" style="fill:#ebebeb"></polygon><polygon points="87.19 294.45 94.23 294.45 96.62 280.1 88.94 280.1 87.19 294.45" style="fill:#c7c7c7"></polygon><polygon points="79.55 286.85 198.33 286.85 198.33 277.21 153.86 274.33 138.92 188.14 84.08 188.14 79.55 286.85" style="fill:#ebebeb"></polygon><polygon points="79.55 286.85 86.03 286.85 90.25 188.14 84.08 188.14 79.55 286.85" style="fill:#c7c7c7"></polygon></g><g id="freepik--Shadow--inject-4"><ellipse cx="250" cy="435.17" rx="135.34" ry="22.69" style="fill:#ebebeb"></ellipse><ellipse cx="88.87" cy="434.21" rx="49.9" ry="10.53" style="fill:#ebebeb"></ellipse><ellipse cx="400.4" cy="434.21" rx="49.9" ry="10.53" style="fill:#ebebeb"></ellipse></g><g id="freepik--Floor--inject-4"><polygon points="33.4 382.79 87.55 382.55 141.7 382.46 250 382.3 358.3 382.46 412.45 382.55 466.6 382.79 412.45 383.04 358.3 383.13 250 383.29 141.7 383.13 87.55 383.04 33.4 382.79" style="fill:#263238"></polygon></g><g id="freepik--Desk--inject-4"><rect x="196.86" y="241.58" width="76.78" height="141.06" style="fill:#455a64"></rect><rect x="196.86" y="241.58" width="76.78" height="9.2" style="fill:#263238"></rect><rect x="41.69" y="234.17" width="264.92" height="7.42" style="fill:#455a64"></rect><polygon points="58.07 241.59 57.82 250.78 54.59 382.65 48.72 382.65 48.72 241.59 58.07 241.59" style="fill:#455a64"></polygon><polygon points="48.72 241.59 58.07 241.59 57.82 250.78 48.72 250.78 48.72 241.59" style="fill:#263238"></polygon><rect x="273.64" y="241.58" width="26.02" height="141.06" style="fill:#37474f"></rect><rect x="273.64" y="241.58" width="26.02" height="9.2" style="fill:#263238"></rect></g><g id="freepik--Plant--inject-4"><path d="M119.23,325.36c-3.4-3.33-7.79-7.35-13-5.92-4.88,1.35-6.75,6.69-7.63,11.13-1.12,5.72-2,11.5-2.91,17.27s-1.78,11.65-2.62,17.48q-.7,4.94-1.4,9.87L91,380.13c-.22,1.62-.49,3.23-.58,4.86,0,.52.79.6.9.1.63-2.75.89-5.6,1.29-8.39s.81-5.6,1.23-8.41q1.22-8.35,2.49-16.69t2.6-16.69c.75-4.72,1.1-10.57,5.28-13.68a8.08,8.08,0,0,1,7.82-.74c2.75,1.05,5,3,7.1,5C119.2,325.52,119.29,325.42,119.23,325.36Z" style="fill:#263238"></path><path d="M114.58,322s-6.94-2.5-10.37,2.56.67,18,32.28,25.22a89.25,89.25,0,0,0-7.61-28.57C122.11,306.4,110,312,114.58,322Z" style="fill:#59D7EE"></path><path d="M134.67,347.64a24.36,24.36,0,0,0-1.59-2.57c-.53-.81-1.06-1.62-1.6-2.43-.41-.61-.82-1.21-1.24-1.81,0-.15,0-.3.06-.45s.07-.55.11-.82c.08-.6.16-1.19.25-1.78s.18-1.17.3-1.76a9,9,0,0,1,.41-1.86c0-.09-.12-.14-.14,0a6.4,6.4,0,0,1-.28,1l-.21.8c-.15.6-.3,1.2-.44,1.81s-.23,1.11-.32,1.68q-.07.41-.12.81c-.57-.81-1.14-1.6-1.73-2.38-1.68-2.21-3.46-4.34-5.29-6.42,0,0,0,0,0-.05.17-3.33.09-6.61.83-9.88,0-.09-.12-.14-.14-.05a33.93,33.93,0,0,0-1.18,9.45c-.66-.74-1.32-1.47-2-2.19q-2.31-2.49-4.71-4.88c-.06-.06-.16,0-.1.1,2.66,2.86,5.19,5.85,7.65,8.89a55.64,55.64,0,0,0-5.77.21c-2.15.16-4.27.44-6.4.73-.09,0-.07.15,0,.14a59.7,59.7,0,0,1,6.39-.57c2.07-.09,4.12,0,6.18,0,1.33,1.65,2.65,3.31,3.94,5h-1.74c-1,0-1.93.09-2.88.17a44,44,0,0,0-5.84.87.07.07,0,0,0,0,.14c1.94-.22,3.89-.4,5.84-.47.93,0,1.86,0,2.8,0h1.45a1.77,1.77,0,0,0,.8-.07c.85,1.1,1.7,2.21,2.54,3.32q1,1.32,2,2.67c.67.92,1.27,1.92,2,2.78C134.61,347.78,134.7,347.71,134.67,347.64Z" style="fill:#263238"></path><path d="M117.6,329.14a20.1,20.1,0,0,0-3.38-.17c-1.13,0-2.25,0-3.38.07-.1,0-.1.15,0,.14,1.14-.08,2.28-.1,3.43-.08s2.21.12,3.32.09C117.64,329.19,117.64,329.14,117.6,329.14Z" style="fill:#263238"></path><path d="M127.52,331.68c.13-1.08.27-2.16.5-3.22,0-.1-.13-.14-.14,0-.16,1.06-.37,2.11-.53,3.18-.08.53-.15,1.06-.21,1.6a6.86,6.86,0,0,0-.13,1.5.09.09,0,0,0,.18,0,9.56,9.56,0,0,0,.17-1.51C127.41,332.71,127.46,332.2,127.52,331.68Z" style="fill:#263238"></path><path d="M125.44,319.72c-.27,1-.55,2.12-.74,3.19-.1.54-.18,1.08-.26,1.63a6.6,6.6,0,0,0-.1,1.6s.07,0,.08,0a9.45,9.45,0,0,0,.25-1.52c.07-.53.15-1.05.24-1.57.19-1.1.39-2.19.67-3.28C125.6,319.68,125.47,319.63,125.44,319.72Z" style="fill:#263238"></path><path d="M84.29,383.82c-.18-2-.37-4-.58-6-.41-3.94-.9-7.87-1.42-11.79s-1-7.83-1.66-11.73A29.39,29.39,0,0,0,79.42,349a5,5,0,0,0-3-3.32c-3.72-1.29-6.22,2.57-7.73,5.3,0,.08.08.14.13.07.9-1.3,3.38-4.92,6.2-4.76,1.9.12,3.42,1.46,4.33,6.2,2.27,11.79,4.32,35.72,4.56,37.28.12.83.71.8.72-.09C84.69,387.73,84.46,385.77,84.29,383.82Z" style="fill:#263238"></path><path d="M69.75,349.52S73,338,65.81,343.78c-12,9.55-12.38,30.33-12.38,30.33s21.26-12.35,23.9-20.49C81.27,341.49,69.75,349.52,69.75,349.52Z" style="fill:#59D7EE"></path><path d="M73.77,355.15c-1.67.34-3.36.56-5,.81l-2.4.33c-.53.08-1.08.13-1.62.19,1.58-2.18,3.18-4.35,4.7-6.58.06-.08-.08-.17-.15-.1a48.09,48.09,0,0,0-3.55,4.1l-.94-2.67c-.36-1-.75-2.05-1-3.1,0-.09-.16-.05-.14,0,.29,1.05.5,2.12.78,3.18s.58,2,.94,3c-.78,1-1.53,2.05-2.25,3.09-.37-1-.82-2-1.14-3.09,0-.09-.17,0-.14,0,.38,1.17.59,2.38.95,3.55-.49.71-1,1.43-1.45,2.15-.85,1.32-1.66,2.67-2.46,4a.31.31,0,0,0-.18.32c-1.35,2.33-2.62,4.69-3.88,7.06,0,.09.08.16.12.07,1.26-2.35,2.67-4.63,4.13-6.88h0a3.1,3.1,0,0,1,.7-.14l.73-.16c.55-.12,1.1-.26,1.64-.39,1.08-.27,2.15-.53,3.24-.71.09,0,0-.16,0-.14-1.29.24-2.58.39-3.88.54-.61.07-1.22.15-1.83.25h-.09c.76-1.16,1.54-2.31,2.32-3.45s1.57-2.23,2.37-3.33c.73-.11,1.46-.3,2.2-.44l2.46-.48c1.65-.33,3.29-.7,4.94-1C73.9,355.27,73.86,355.13,73.77,355.15Z" style="fill:#263238"></path><path d="M61,356.28c-.09-.3-.19-.6-.28-.91a18,18,0,0,1-.49-1.92c0-.09-.16-.05-.14,0,.14.65.29,1.29.44,1.94a13,13,0,0,0,.56,1.91.13.13,0,0,0,.24-.08C61.23,356.93,61.1,356.61,61,356.28Z" style="fill:#263238"></path><path d="M76,352.5c-1,.14-2,.21-2.93.29s-2,.23-2.92.37c0,0,0,.09,0,.09,1-.07,2-.14,2.93-.27s1.94-.27,2.92-.34C76,352.63,76,352.48,76,352.5Z" style="fill:#263238"></path><path d="M99.93,369.29c-.37-8.45-.91-16.88-1.76-25.3-.42-4.19-.89-8.38-1.48-12.55a89.78,89.78,0,0,0-2.43-12.15,23.35,23.35,0,0,0-4-8.56,9.19,9.19,0,0,0-8.17-3.57c-3.7.46-6.68,2.79-9.25,5.32-2.89,2.84-5.54,5.94-8.21,9-.68.77-1.35,1.54-2,2.32-.06.07,0,.17.11.1,2.61-3,5.33-5.93,8.18-8.72,2.62-2.58,5.33-5.4,9-6.47a9.28,9.28,0,0,1,5.22-.12,8.23,8.23,0,0,1,3.56,2.26,18.63,18.63,0,0,1,4,7.81c2.28,7.77,3.09,15.91,3.93,23.93s1.44,16.32,1.85,24.5.73,16.47,1.52,24.67c.1,1,.23,2,.36,3,.09.68,1.14.68,1.09,0C100.7,386.27,100.31,377.79,99.93,369.29Z" style="fill:#263238"></path><path d="M72.33,313.4s4.83-8.93-.87-11.8S46.67,320,41.1,351.18c0,0,30.82-13.63,41.29-27.22S81,307.38,72.33,313.4Z" style="fill:#59D7EE"></path><path d="M76.87,320.66c-3.47,0-6.92-.26-10.39-.24l2-2.23a32.28,32.28,0,0,0,2.71-3.14c0-.08,0-.18-.12-.12a23.24,23.24,0,0,0-2.62,2.63c-.87.92-1.74,1.84-2.59,2.77-1.33,1.43-2.63,2.89-3.92,4.35,0-.14,0-.28,0-.42,0-.61,0-1.21,0-1.82l0-3.52c0-2.39,0-4.78.19-7.16,0-.09-.14-.08-.15,0-.16,2.39-.41,4.76-.53,7.16,0,1.17-.08,2.35-.1,3.52,0,.61,0,1.22,0,1.82,0,.33,0,.68,0,1-.2.23-.41.45-.62.68-2.76,3.16-5.39,6.43-7.95,9.75,0-.18,0-.37,0-.55l-.12-1.1c-.09-.79-.2-1.58-.32-2.37s-.23-1.49-.35-2.23-.35-1.68-.41-2.52a.07.07,0,1,0-.14,0,21.7,21.7,0,0,1,.29,2.54l.21,2.29c.07.76.14,1.52.22,2.29,0,.36.07.73.11,1.09l.06.55a1.07,1.07,0,0,0,.15.44l-1.32,1.72c-1.74,2.31-3.46,4.65-5.18,7,0,.07,0,.17.11.1,1.62-2.12,3.29-4.2,5-6.26,1.27,0,2.56,0,3.83-.06s2.67,0,4,0a.07.07,0,0,0,0-.14l-4,0c-1.22,0-2.47-.06-3.68,0q2.24-2.71,4.5-5.41c.55-.65,1.11-1.3,1.66-2a7.22,7.22,0,0,0,1.54.05h1.83c1.13,0,2.27,0,3.41-.05,2.35,0,4.71-.11,7.06-.12a.07.07,0,0,0,0-.14c-2.36,0-4.71-.13-7.07-.19-1.14,0-2.28-.07-3.42-.08l-1.82,0c-.35,0-.7,0-1,0,1.29-1.53,2.58-3.07,3.88-4.6a.27.27,0,0,0,.07-.08q1.89-2.24,3.8-4.46l.53-.6c3.59.11,7.18-.13,10.77-.06A.07.07,0,0,0,76.87,320.66Z" style="fill:#263238"></path><path d="M75.09,326.78h-.84c-.08,0-.07.13,0,.13h.84C75.19,326.93,75.19,326.78,75.09,326.78Z" style="fill:#263238"></path><path d="M73.23,326.79c-1.11,0-2.22,0-3.33-.07l-1.67-.05a6.1,6.1,0,0,0-1.54,0,.05.05,0,0,0,0,.1,5.73,5.73,0,0,0,1.55.11l1.66,0h3.33A.08.08,0,0,0,73.23,326.79Z" style="fill:#263238"></path><path d="M63.54,337.19a47.23,47.23,0,0,0-6.82-.61,0,0,0,0,0,0,.05c2.27.22,4.54.34,6.78.7A.07.07,0,1,0,63.54,337.19Z" style="fill:#263238"></path><path d="M54.27,327.28c0-.2,0-.4-.07-.6-.05-.44-.12-.89-.19-1.33-.14-.85-.29-1.69-.45-2.53,0-.08-.15-.06-.14,0,.11.87.2,1.74.29,2.62,0,.43.07.86.11,1.28A3.63,3.63,0,0,0,54,328c.06.13.26.07.3-.05A1.54,1.54,0,0,0,54.27,327.28Z" style="fill:#263238"></path><path d="M99.63,301.93c-1.1-2.06-2.51-4.77-5.26-4.6-2.27.15-3.3,2.47-3.78,4.38C89.08,307.64,89,313.9,88.69,320c-.62,12.85-1.18,25.71-1.26,38.57,0,3.56,0,7.13,0,10.69s0,7.3.25,10.93a.27.27,0,0,0,.53,0c0-3.11-.09-6.22-.1-9.33s0-6.07.06-9.11q.15-9.21.49-18.43c.23-6.11.5-12.21.76-18.32l.39-9.15c.14-3,.26-5.92.6-8.86.19-1.65.44-3.29.78-4.92a6.85,6.85,0,0,1,1.42-3.29,3.11,3.11,0,0,1,4-.29A8.49,8.49,0,0,1,99.51,302C99.55,302.08,99.67,302,99.63,301.93Z" style="fill:#263238"></path><path d="M98.89,301s-2.27-8,2.74-4c8.33,6.65,8.62,21.13,8.62,21.13s-14.81-8.6-16.65-14.28C90.86,295.35,98.89,301,98.89,301Z" style="fill:#59D7EE"></path><path d="M107.14,312.14l-.42-.65a5.14,5.14,0,0,0,0-.68c0-.35,0-.69,0-1,0-.68,0-1.35.07-2,0-.09-.13-.09-.14,0,0,.67-.06,1.33-.08,2l0,1c0,.12,0,.27,0,.42q-.87-1.35-1.8-2.67c-.18-.26-.36-.51-.55-.76a16.23,16.23,0,0,1,0-2.61c0-.93,0-1.86,0-2.78,0-.1-.14-.09-.14,0,0,1-.07,1.93-.12,2.9a17.72,17.72,0,0,0-.06,2.06c-1.43-1.94-2.95-3.82-4.48-5.68-.05-.06-.16,0-.11.09.95,1.2,1.86,2.44,2.75,3.69-1.74-.41-3.51-.64-5.28-.9-.09,0-.13.13,0,.14,1.88.28,3.72.75,5.57,1.16h0c.7,1,1.41,2,2.1,3,.29.41.56.83.84,1.24h-.08l-.57-.08c-.41-.05-.82-.08-1.23-.11-.86-.07-1.71-.11-2.57-.16a.07.07,0,0,0,0,.14c.85,0,1.68.09,2.52.18.44,0,.88.11,1.33.16l.57.07.17,0,1.43,2.1c.83,1.23,1.58,2.56,2.47,3.75.06.07.16,0,.12-.07A41,41,0,0,0,107.14,312.14Z" style="fill:#263238"></path><path d="M103.45,303.11c0-.31,0-.62,0-.93a16.06,16.06,0,0,1,.08-2,.07.07,0,1,0-.14,0c0,.64-.07,1.29-.1,1.94,0,.32,0,.65,0,1,0,.15,0,.3,0,.45a1.41,1.41,0,0,0,0,.46.06.06,0,0,0,.12,0,1.25,1.25,0,0,0,0-.43Z" style="fill:#263238"></path><path d="M101.62,306.43a15.75,15.75,0,0,0-1.67-.17c-.61-.06-1.22-.11-1.83-.19-.1,0-.12.14,0,.14,1.17.08,2.34.29,3.51.33A.06.06,0,0,0,101.62,306.43Z" style="fill:#263238"></path><path d="M106.27,306.47a.81.81,0,0,1,0,.31V307c0,.19,0,.37,0,.56v.56a1.34,1.34,0,0,0,0,.49s0,0,.06,0a.5.5,0,0,0,0-.24v-.25c0-.19,0-.38,0-.56v-.82c0-.08,0-.24,0-.31S106.18,306.34,106.27,306.47Z" style="fill:#263238"></path><path d="M100,344.58c-3.12-2.33-5.92-5.69-10.11-5.86-3.45-.13-5.88,2.47-7.26,5.37a31.12,31.12,0,0,0-1.7,4.77q-.93,3.28-1.76,6.6Q77.52,362,76.37,368.6c-.42,2.46-.81,4.92-1.12,7.4a64.37,64.37,0,0,0-.73,7.58.4.4,0,0,0,.78.09c.42-2.07.59-4.21.9-6.3s.62-4.21,1-6.31q1.06-6.3,2.48-12.52c.89-3.92,1.77-7.9,3-11.72.9-2.73,2.36-5.93,5.31-6.91,4.5-1.5,8.58,2.31,11.87,4.78C100,344.74,100.05,344.64,100,344.58Z" style="fill:#263238"></path><path d="M96.75,342.35s-2.87-8.2,1.28-9.81c6.23-2.41,22.52,15.94,19.33,44,0,0-12.59-6.93-21.88-14.73s-11.67-18-7.58-20.62S96.75,342.35,96.75,342.35Z" style="fill:#59D7EE"></path><path d="M115.48,370.56a22,22,0,0,0-1.52-2.83c-.53-1-1.07-1.92-1.62-2.87-1.08-1.85-2.16-3.71-3.27-5.54l-.54-.89c0-.11,0-.22.07-.33l.18-.81c.14-.61.25-1.23.36-1.84.23-1.2.43-2.42.76-3.6a.07.07,0,0,0-.14,0c-.26,1.2-.64,2.39-1,3.56-.18.58-.36,1.16-.52,1.75,0,.2-.1.4-.16.6-1.33-2.2-2.69-4.38-4.16-6.49a2.88,2.88,0,0,0,.14-.9l.15-1.23c.11-.93.21-1.85.35-2.77a52.06,52.06,0,0,1,1-5.39c0-.09-.11-.11-.14,0-.44,1.77-.93,3.54-1.27,5.33-.16.88-.32,1.77-.44,2.65-.06.45-.1.89-.15,1.34,0,.13,0,.27,0,.4-.45-.64-.9-1.27-1.38-1.89-1.43-1.89-2.92-3.74-4.43-5.58,0-.07-.17,0-.11.08a98.31,98.31,0,0,1,7.07,10.34c.42.66.82,1.32,1.23,2l-.41-.05c-.52-.06-1.06-.1-1.58-.15l-3.18-.27c-2.12-.17-4.25-.3-6.36-.53-.09,0-.12.13,0,.14,2.15.25,4.28.59,6.41.9,1,.15,2.1.29,3.16.42a12.64,12.64,0,0,0,2.42.25q1.26,2,2.5,4.06a3.46,3.46,0,0,0-.56,0h-3c-1.37,0-2.73,0-4.1,0-.09,0-.07.14,0,.14,1.38,0,2.76.09,4.14.16.66,0,1.31.07,2,.12l1,.07a2.07,2.07,0,0,0,.86,0c.71,1.15,1.43,2.3,2.13,3.45s1.31,2.12,2,3.17a26,26,0,0,0,2.14,3.21A.08.08,0,0,0,115.48,370.56Z" style="fill:#263238"></path><path d="M109.48,347.84a20.58,20.58,0,0,1-.56,2.68c-.24.91-.5,1.81-.8,2.7a.09.09,0,1,0,.17.06c.28-.89.53-1.78.75-2.69s.36-1.82.58-2.72C109.64,347.78,109.49,347.75,109.48,347.84Z" style="fill:#263238"></path><path d="M100.23,353.33a1.07,1.07,0,0,0-.68-.25l-1.19-.16-2.21-.27c-1.54-.18-3.07-.33-4.61-.52-.09,0-.11.13,0,.14,1.45.17,2.88.39,4.33.58l2.12.28,1,.11a3.49,3.49,0,0,1,1.16.2C100.23,353.48,100.28,353.38,100.23,353.33Z" style="fill:#263238"></path><path d="M109.46,365.7c-.73-.07-1.46-.09-2.18-.11l-1.1,0-.53,0a3.82,3.82,0,0,1-.68,0c-.11,0-.12.16,0,.14a3.43,3.43,0,0,1,.64,0l.57,0,1.1.07c.73,0,1.46.09,2.18.09C109.54,365.85,109.55,365.7,109.46,365.7Z" style="fill:#263238"></path><path d="M113.89,362.55q.14-.62.24-1.23l.45-2.44a.07.07,0,0,0-.14,0l-.54,2.37c-.09.39-.17.79-.26,1.18,0,.19-.07.37-.11.55a1.44,1.44,0,0,0-.06.58c0,.07.11.12.15,0A2.81,2.81,0,0,0,113.89,362.55Z" style="fill:#263238"></path><polygon points="112.22 386.78 111.52 398.4 109.45 432.7 67.04 432.7 64.97 398.4 64.27 386.78 112.22 386.78" style="fill:#455a64"></polygon><polygon points="112.22 386.78 111.52 398.4 64.97 398.4 64.27 386.78 112.22 386.78" style="fill:#263238"></polygon><rect x="61.03" y="378.56" width="54.44" height="11.63" style="fill:#455a64"></rect></g><g id="freepik--Character--inject-4"><path d="M243.62,375.58s-5.85,43.05-5.85,43.08c-.11,8.24-.35,15.46-.82,19.18a.13.13,0,0,1,0,.06,5.53,5.53,0,0,1-.64,2.53l-.05.06c-2.47,1.62-68.3,2.7-70.61,2s-.39-7.37,2.13-9.45,27.55-13.77,27.55-13.77l6.26-43Z" style="fill:#ad6359"></path><path d="M237.68,424c-.13,6-.36,11-.73,13.88a.13.13,0,0,1,0,.06,5.53,5.53,0,0,1-.64,2.53s0,0,0,.05c-2.48,1.63-68.31,2.7-70.62,2s-.39-7.37,2.13-9.45c1.21-1,7.57-4.18,13.87-7.24-2,1.57-4,3.5-3.09,4.28C180.17,431.41,220.09,430,237.68,424Z" style="fill:#263238"></path><path d="M185.35,424s11.65-5.3,31.63,4.29" style="fill:#263238"></path><polygon points="253.46 405.25 196.09 404.33 224.96 189.07 263.85 189.07 253.46 405.25" style="fill:#263238"></polygon><polygon points="263.85 189.07 256.48 342.41 237.14 189.07 263.85 189.07" style="fill:#37474f"></polygon><path d="M250.7,395.28c-1.73-.19-3.5-.18-5.24-.25s-3.34-.09-5-.12c-3.46-.06-6.91-.12-10.37-.16-6.83-.06-13.66-.11-20.49-.09-3.88,0-7.74.13-11.62.3a.1.1,0,0,0,0,.19c6.87.41,13.73.52,20.61.61s13.66.11,20.49.1c1.92,0,3.83,0,5.75,0s3.94,0,5.87-.18A.18.18,0,0,0,250.7,395.28Z" style="fill:#455a64"></path><path d="M232.3,200.29c-3.38,24.45-6.51,48.92-9.83,73.38s-6.82,48.67-10.36,73c-2,13.65-4.07,27.28-5.9,41,0,.21.29.29.33.08,4.47-24.27,8-48.72,11.55-73.14s6.8-48.68,9.81-73.07c1.69-13.7,3.33-27.41,4.72-41.14C232.64,200.15,232.33,200.11,232.3,200.29Z" style="fill:#455a64"></path><path d="M263.9,376.21s5.52,41.05,5.52,41.08c.05,8.23.24,15.45.69,19.18a.15.15,0,0,0,0,.06,5.89,5.89,0,0,0,.62,2.54s0,0,.05.05c2.46,1.64,61.24,3.14,63.56,2.42s.44-7.37-2.07-9.47-20.42-13.94-20.42-13.94l-6.91-43Z" style="fill:#ad6359"></path><path d="M334.35,441.54c-2.31.72-61.09-.78-63.56-2.42,0,0,0,0,0-.06a5.59,5.59,0,0,1-.63-2.54.13.13,0,0,1,0-.06,103.78,103.78,0,0,1-.62-13c9.6,6.09,34.46,8.8,42.36,7.07,7-1.54,5.46-7.18,4-9.72,5.42,3.61,14.67,9.82,16.44,11.29C334.79,434.16,336.67,440.82,334.35,441.54Z" style="fill:#263238"></path><path d="M315.84,420.78s-19.78-3.22-33.31,7.47" style="fill:#263238"></path><path d="M228.91,189v0c.17.8,2.89,13.42,5.71,24.26,2.05,7.92,4.16,14.88,5.37,15.6,1.37.81,8.05,3.77,10.29,4.7L259,404.85l59.36-1.33-31-186.76L282.14,189Z" style="fill:#263238"></path><path d="M236.45,227.16a87.83,87.83,0,0,1,13.77,6.41.16.16,0,0,1-.13.29c-4.64-2-9.37-3.9-13.89-6.15A.3.3,0,0,1,236.45,227.16Z" style="fill:#455a64"></path><path d="M235.05,195.39c0-.16.29-.2.29,0,0,5.51.32,10.36.78,15.5.22,2.39,2.14,15.6,6.28,14.64.7-.17,1-.85,1.16-1.89a16.52,16.52,0,0,0-.55-4.05c-.46-2.77-.83-5.54-1.07-8.33a76.3,76.3,0,0,1,.17-15.63.14.14,0,0,1,.27,0,142.47,142.47,0,0,0,1.26,21.56c.52,3.44,2.25,8.61-1.34,9.14s-6-8.12-6.48-10.49A79.51,79.51,0,0,1,235.05,195.39Z" style="fill:#455a64"></path><path d="M242.29,225.85a20.55,20.55,0,0,1,.93,2.74,6.24,6.24,0,0,1,.39,2.25.16.16,0,0,1-.29.06,8.1,8.1,0,0,1-1-2.19c-.31-.85-.65-1.69-.94-2.54A.46.46,0,0,1,242.29,225.85Z" style="fill:#455a64"></path><path d="M315,395.34c-1.73-.14-3.51-.09-5.25-.11s-3.33,0-5,0c-3.45,0-6.91.08-10.36.14-6.83.13-13.66.28-20.49.49-3.88.12-7.74.35-11.6.63a.1.1,0,0,0,0,.19c6.88.22,13.74.13,20.62,0s13.66-.28,20.48-.48l5.75-.2c1.94-.08,3.94-.11,5.86-.35A.18.18,0,0,0,315,395.34Z" style="fill:#455a64"></path><path d="M289,372.29c-.51-5.23-1.07-10.46-1.61-15.69q-1.62-15.54-3.34-31.06-3.41-31.05-7-62.1c-1.33-11.61-2.43-23.26-3.94-34.85,0-.1-.18-.1-.17,0,.9,10.48,2.18,20.92,3.24,31.38s2.08,20.71,3.16,31.06q3.22,31.07,6.62,62.11c.64,5.81,1.28,11.62,2,17.43s1.49,11.61,2.22,17.42c0,.14.24.14.22,0C289.9,382.75,289.51,377.52,289,372.29Z" style="fill:#455a64"></path><path d="M224.5,212.68l10.13.65,29.53,1.92,23.22,1.51L282.14,189H228.91v0h-4Z" style="fill:#263238"></path><path d="M238.68,80.74c-9.7,8.31-7,20.44-11.05,27-2.48,4-10.54,8.27-12.15,12.9-2.63,7.62,3.82,10.35,2.38,14.49-2,5.86-9.89,5.41-11.31,15s9.14,19.79,34.19,22.56,38.8-6.41,39.7-14.55-7.43-10.84-8-16.92c-.36-3.88,4.78-6.59,5-13.73s-6.7-9.47-7.7-15.54,2.22-20.82-6.7-28.35S243.46,76.64,238.68,80.74Z" style="fill:#263238"></path><path d="M239.8,81a20.66,20.66,0,0,0-6.44,7.42,45.36,45.36,0,0,0-3.58,9.85,26.94,26.94,0,0,1-1.94,5.89,15.14,15.14,0,0,1-3.36,4.15c-2.71,2.45-5.95,4.32-8.38,7.07s-4.1,6.1-3.18,9.65c.5,1.93,1.78,3.51,2.57,5.31s1,3.84-.41,5.26c-1.26,1.21-3.07,1.77-4.49,2.76a15.82,15.82,0,0,0-3.66,3.55,12.29,12.29,0,0,0-2.31,9.63c1.48,7.79,8.79,12.22,15.54,15,.94.39,1.88.77,2.83,1.14.15.06.27-.15.12-.21-6.77-3-14.63-6.59-17.23-14.17A11.42,11.42,0,0,1,207,143.22a14.55,14.55,0,0,1,3.58-3.76c1.36-1,2.94-1.63,4.32-2.58a4.6,4.6,0,0,0,2.13-4.12,11.32,11.32,0,0,0-1.86-5,9.21,9.21,0,0,1-1.6-5.24,10.13,10.13,0,0,1,2-5c2.11-3,5.23-4.94,8-7.2a16.94,16.94,0,0,0,6.1-8.43c.52-1.79.84-3.63,1.29-5.43a47,47,0,0,1,1.49-5,23.53,23.53,0,0,1,5.3-8.73,12.93,12.93,0,0,1,2.06-1.7C240,81,239.88,80.9,239.8,81Z" style="fill:#263238"></path><path d="M281.55,152.18a9.35,9.35,0,0,0-1.73-3.64c-.87-1.1-1.92-2-2.89-3a7.22,7.22,0,0,1-2.05-3.39,6.74,6.74,0,0,1,1.11-4.51,35.15,35.15,0,0,0,2.24-4.36,15.7,15.7,0,0,0-1.57-14c-.85-1.4-1.81-2.73-2.68-4.12a20.16,20.16,0,0,1-2.22-4.86c-1.13-3.77-1.37-7.75-2.29-11.57a60.08,60.08,0,0,0-4.07-11.36c0-.09-.18,0-.13.08a51.69,51.69,0,0,1,3.55,10.26c.8,3.35,1.11,6.77,1.7,10.15a25.56,25.56,0,0,0,1.27,4.88,26,26,0,0,0,2.17,4.19c1.7,2.76,3.44,5.48,3.91,8.76a15.37,15.37,0,0,1-1.61,9.37c-1.32,2.49-3.16,5.24-2,8.15,1,2.47,3.32,4,4.89,6a9.92,9.92,0,0,1,1.69,7.92c-1.35,7-8.37,10.49-14.95,10.84a.16.16,0,0,0,0,.32c5.72-.07,11.95-2.58,14.63-7.94A12.14,12.14,0,0,0,281.55,152.18Z" style="fill:#263238"></path><path d="M244.29,130.68c-1.78,7.28-22.93,75.52-27.12,76.47-12.33,2.78-27.15,4.82-26.93-5.3.35-15.88,30.2-57.68,44.5-71.57C244.15,121.13,246.05,123.49,244.29,130.68Z" style="fill:#ad6359"></path><path d="M244.29,130.68c-1.78,7.28-22.93,75.52-27.12,76.47-12.33,2.78-27.15,4.82-26.93-5.3.35-15.88,30.2-57.68,44.5-71.57C244.15,121.13,246.05,123.49,244.29,130.68Z" style="fill:#ad6359"></path><path d="M190.16,205.49c-5.12-18,38.15-70.91,46.57-77.65s9.51-4.63,7.8,3.88S222.36,204.65,218,207,192.48,213.65,190.16,205.49Z" style="fill:#ebebeb"></path><path d="M225.52,171.51l-4.75,32.68s53.26.79,66.48-.14c0,0-10.78-61.1-25-76.53-7.11-7.72-15.46-7.15-20.78-1.75-1.34,1.37-17.41,22.6-19.1,30.71C220.89,163.63,225.52,171.51,225.52,171.51Z" style="fill:#59D7EE"></path><path d="M256.36,123s-6.2,170.36-2.91,178.45,52.8,16.12,52.8,16.12-14.53-121.94-27.71-158.95C266.32,124.3,256.36,123,256.36,123Z" style="fill:#ebebeb"></path><path d="M289.44,227.74a115,115,0,0,1-13.56,1.06c-6.34,0-12.63-.62-14.45-.64-.16,0-.24.53-.13.54a142.77,142.77,0,0,0,14.47,1,76,76,0,0,0,13.2-1.25c0,1.34,0,2.39,0,3.74-4.47.86-13.09,2.35-27,.56-.05-.56,0-3.55-.09-4.37,0-.12-.54-.15-.56,0-.11.81-.44,8-.45,9.46,0,3.6.22,13.76,1.11,15.73,2,4.46,10.71,4.47,13.12,4.49s10.15.26,13.05-2.58c1.55-1.51,1.88-9.75,1.65-17C289.65,235,289.64,227.81,289.44,227.74Zm-13.7,29.48c-7.68,0-11-1.6-12.2-3.21-1.38-1.86-1.5-5.12-1.6-8.71-.08-2.82,0-11.65,0-11.83,4.47.9,16.28,2.13,27-.36,0,4.18,0,7.53,0,11.72,0,3-.19,8.12-1.73,9.89C286,256.2,281.29,257.21,275.74,257.22Z" style="fill:#a6a6a6"></path><path d="M223.71,302.2c-2.74,6.48-19.12,10.88-19.12,10.88l20.64-142.16a21.31,21.31,0,0,1-2.88-14.3c1.39-8,18.08-31.11,20.78-32.3a258.72,258.72,0,0,0-5.79,36.26C232.71,210.55,226.71,295.13,223.71,302.2Z" style="fill:#ebebeb"></path><path d="M227.61,145.82c1.49-2.37,3-4.72,4.48-7.1,0-.07-.07-.15-.12-.08-1.49,2-2.94,3.93-4.38,5.92.48-1.06.94-2.13,1.37-3.22,0-.12-.12-.23-.18-.1-.66,1.4-1.26,2.82-1.85,4.25a39.73,39.73,0,0,0-3.4,5.63,19.66,19.66,0,0,0-1.81,13.29,17.15,17.15,0,0,0,1.33,3.63c.4.79,1.68,2.5,1.67,2.55-.83,4.66-1.46,9.37-2.12,14.06s-1.34,9.48-1.89,14.24c-.31,2.7-.51,5.41-.91,8.09,0,.1.14.14.16,0,.34-2.34.84-4.65,1.26-7s.81-4.66,1.18-7c.76-4.72,1.44-9.45,2.12-14.18.39-2.68.81-5.35,1.11-8a23.07,23.07,0,0,0-1.53-2.94,18.43,18.43,0,0,1-1.17-3.08,17.15,17.15,0,0,1-.56-6.61C222.89,153.65,225.23,149.62,227.61,145.82Z" style="fill:#263238"></path><path d="M243,124.84q-2.35,3.57-4.78,7.07c-1.63,2.33-3.22,4.69-4.88,7l0-.55,4,4.19.33.34-.35.34c-1.68,1.63-3.39,3.22-5.09,4.83l.14-.42c.62,4.33,1.28,8.66,1.83,13s1.14,8.69,1.62,13c-.83-4.3-1.58-8.61-2.3-12.93s-1.4-8.64-2.09-13l0-.24.18-.17c1.69-1.62,3.37-3.25,5.08-4.84v.68L232.67,139l-.25-.27.21-.29c1.68-2.29,3.43-4.54,5.13-6.81S241.23,127.07,243,124.84Z" style="fill:#a6a6a6"></path><path d="M260.88,135.07c4.55,6,25.07,29.83,26.37,31.93.88,1.41-4.07,8.06-4,9,.44,3.9,8.47,28.93,11.79,26.2,4.37-3.58,24.49-28.53,21.57-39.27s-48.73-36.54-55.77-38.63S256.38,129.2,260.88,135.07Z" style="fill:#ad6359"></path><path d="M286.72,167.33c0-1.52-24-27.07-28.41-35.61s-2.17-10.36,9.09-4.88,45.83,25.55,49.93,35.53-18.4,37.41-18.4,37.41l-15.74-26.49S286.7,168.58,286.72,167.33Z" style="fill:#ebebeb"></path><path d="M302,192.14c-5.43-10.09-12.66-19.87-13.8-21.66-.06-.09-.19,0-.13.09,1.21,1.7,8.27,13.78,13.79,21.67C301.89,192.33,302,192.24,302,192.14Z" style="fill:#263238"></path><path d="M277.81,156.28c-1-1.24-1.94-2.51-3-3.73s-2.1-2.46-3.17-3.67q-3.23-3.69-6.58-7.26s-.09,0-.06,0q1.72,2.18,3.49,4.3l0,0c-.74-.62-1.53-1.19-2.33-1.74,0,0-.07,0,0,.06.69.68,1.41,1.35,2.16,2l1.1.9a3.92,3.92,0,0,0,.32.25c.48.57,1,1.14,1.43,1.7,1,1.23,2.09,2.46,3.17,3.67s2.26,2.4,3.38,3.62C277.75,156.44,277.87,156.35,277.81,156.28Z" style="fill:#263238"></path><path d="M280.69,208.76c-2.34-2,1.38-3.63,1.38-3.63s-5.91,1-7.52-2,3-4.69,3.34-4.82c-.31.05-5.76.85-7.07-2.35s3.53-4.32,3.85-4.39c-.31,0-4.41-.7-4.85-3.35-.75-4.56,11.14-3.68,14-6.08,0,0-.47-6-.54-6.13a6.79,6.79,0,0,0,3,3.25c2.48,1,4.73,1.71,5.63,3.06a3.4,3.4,0,0,1-.09,4s3.28,0,4.39,2.49c.56,1.27-1,3.31-1,3.31a4.05,4.05,0,0,1,3.47,2.39c.69,1.8-1,3.57-1,3.57s2.47,1.28,2.56,3.35C300.54,205.66,285.71,213.07,280.69,208.76Z" style="fill:#ad6359"></path><path d="M297.56,198.45c.05,0,.09,0,.05.07a28.73,28.73,0,0,1-15.73,6.72c-.19,0-.29-.28-.09-.33A59,59,0,0,0,297.56,198.45Z" style="fill:#263238"></path><path d="M295.36,192.17c.06,0,.11.05.06.1a27,27,0,0,1-17.62,6.27c-.22,0-.42-.24-.16-.25C282,198.14,290.79,195,295.36,192.17Z" style="fill:#263238"></path><path d="M274.22,191.41c6.29,0,11.95-2,17.47-4.87.07,0,.11.07.06.11-2.31,2.15-6,3.63-9,4.53a16.55,16.55,0,0,1-8.52.45C274.1,191.6,274.08,191.41,274.22,191.41Z" style="fill:#263238"></path><path d="M297.94,198.13a4,4,0,0,0,1.39-3.93,3,3,0,0,0-1.27-1.66,5.12,5.12,0,0,0-2.4-.5,3.92,3.92,0,0,0,.58-4.38,2.91,2.91,0,0,0-1.76-1.23,9.67,9.67,0,0,0-2.54-.19,3.43,3.43,0,0,0,1.08-2.91,3.74,3.74,0,0,0-2-2.77,17.81,17.81,0,0,0-3.9-1.41,8.93,8.93,0,0,1-2-.8c-.56-.34-1.35-1-1.43-1.67,0-.14-.21-.05-.14,0a14.67,14.67,0,0,0,.89,1.33,6.17,6.17,0,0,0,1.28,1.06,28.45,28.45,0,0,0,3.68,1.57,5.28,5.28,0,0,1,2.64,2.22,3.19,3.19,0,0,1-.28,3.36.08.08,0,0,0,.07.13,9.38,9.38,0,0,1,2.23.52,3.2,3.2,0,0,1,1.46,1.17,4.09,4.09,0,0,1-.28,4.09,7.19,7.19,0,0,1,2.3.89,3,3,0,0,1,1,1.37,3.54,3.54,0,0,1-.8,3.64l0,.05h0v0a.05.05,0,0,0,0,0h0s.78.44.82.45,0,0,0-.05A6.7,6.7,0,0,0,297.94,198.13Z" style="fill:#263238"></path><path d="M257.15,124.36c1.21,2.57,2.4,5.16,3.55,7.76s2.32,5.19,3.42,7.81l.14.33-.3.2-4.79,3.24.14-.67c1.3,1.94,2.56,3.91,3.83,5.88l.12.19-.06.21c-1.29,4-2.53,8-3.87,11.93s-2.67,7.93-4.08,11.87c1.08-4.05,2.23-8.07,3.41-12.08s2.41-8,3.63-12l0,.4c-1.29-2-2.58-3.9-3.84-5.87l-.27-.41.4-.26,4.85-3.15-.16.53c-1.09-2.63-2.09-5.29-3.15-7.93S258.13,127,257.15,124.36Z" style="fill:#a6a6a6"></path><path d="M262.25,129.31c-.25-5.82-7.5-7.34-11.89-7.46-5.21-.14-8.57.67-10.49,5.91-2,5.53-2.71,11.77-3.09,17.62a.85.85,0,0,1-1.7-.09c.44-6.74.77-19.26,6.95-23.58,5.7-4,21.5-2.18,21.92,7.69,0,1.09-1.66,1-1.7-.09Z" style="fill:#455a64"></path><path d="M231.86,148.35a3.91,3.91,0,1,0,4.1-3.71A3.93,3.93,0,0,0,231.86,148.35Z" style="fill:#263238"></path><path d="M233.42,148.43a2.35,2.35,0,1,0,2.47-2.23A2.34,2.34,0,0,0,233.42,148.43Z" style="fill:#ebebeb"></path><path d="M258.38,148.06c-2.48,16.71-1.38,20.6.17,22.32A10.77,10.77,0,0,0,262.7,173l.38-1.13-.19.57.19-.57a9.66,9.66,0,0,1-3.65-2.32c-1.12-1.24-2.33-4.8.12-21.34Z" style="fill:#c7c7c7"></path><rect x="261.83" y="170.48" width="2.53" height="4.11" rx="1.11" transform="translate(2.53 348.87) rotate(-67.34)" style="fill:#263238"></rect><path d="M269,147.29c4.57,11.88,6.09,18.49,4.78,20.81a9.71,9.71,0,0,1-3.05,3.06l.61,1a11,11,0,0,0,3.47-3.5c1.56-2.76.2-9.08-4.7-21.81Z" style="fill:#c7c7c7"></path><rect x="269.61" y="169.72" width="2.53" height="4.11" rx="1.11" transform="translate(286.96 492.12) rotate(-125.26)" style="fill:#263238"></rect><path d="M270.47,146.31a67.25,67.25,0,0,0-3-7.77,7.14,7.14,0,0,0-2.68-2.63c-.23,0-.36-2.07-.43-3.77-.05-1.49-.09-3.24-.5-3.68a1.17,1.17,0,0,0-1.62.1c-.36.48-.19,2.22-.08,3.71.13,1.7.25,3.77,0,3.79A7.78,7.78,0,0,0,260,139a55.74,55.74,0,0,0-1.93,8.3c-.18,1.78.41,1.93.93,2.05.73.16,1.13-.37,1.47-2.35.54-3.15,1.08-8.41,3.2-8.63h0c2.13,0,3.59,5.32,4.6,8.28.63,1.85,1,2,1.76,1.74C270.49,148.23,271,148,270.47,146.31Z" style="fill:#263238"></path><path d="M255.14,124c-.39,1-4.22,7.71-9,7.71-3,0-2.28-10.33-2.28-10.33l0-.64-.7-9,11.2-5.1,1.6-.66s0,2.48,0,5.56V112c0,.18,0,.34,0,.5,0,.46,0,.93,0,1.4s0,.71,0,1.08,0,.74,0,1.12A58.68,58.68,0,0,1,255.14,124Z" style="fill:#ad6359"></path><path d="M255.94,111.54a18.14,18.14,0,0,1-12.14,9.21l-.7-9,11.2-5.1,1.6-.66S255.93,108.46,255.94,111.54Z" style="fill:#263238"></path><path d="M231.84,98.33c-1.48,15.79,7.82,18.46,11.22,18.77,3.09.29,13.65.86,16.75-14.69S256,81.18,249,80.16,233.31,82.54,231.84,98.33Z" style="fill:#ad6359"></path><path d="M237,94.82a9.58,9.58,0,0,0,1.07-.19,1.76,1.76,0,0,0,1.07-.4.56.56,0,0,0,0-.69,1.4,1.4,0,0,0-1.36-.38,2.1,2.1,0,0,0-1.32.68A.61.61,0,0,0,237,94.82Z" style="fill:#263238"></path><path d="M247.82,95.24a9.68,9.68,0,0,1-1.06-.27,1.78,1.78,0,0,1-1-.47.57.57,0,0,1,0-.69,1.4,1.4,0,0,1,1.39-.28,2.05,2.05,0,0,1,1.26.78A.6.6,0,0,1,247.82,95.24Z" style="fill:#263238"></path><path d="M245.4,99.16s.08,0,.08.1c-.1,1.07,0,2.32.92,2.74,0,0,0,.07,0,.06C245.21,101.82,245.14,100.16,245.4,99.16Z" style="fill:#263238"></path><path d="M246.43,98.09c1.75,0,1.67,3.46.06,3.48S245,98.11,246.43,98.09Z" style="fill:#263238"></path><path d="M247.11,98.29c.3.2.59.56,1,.6s.75-.3,1-.65c0,0,.06,0,.06,0,0,.67-.28,1.35-1,1.43s-1.11-.52-1.26-1.2C246.88,98.39,247,98.21,247.11,98.29Z" style="fill:#263238"></path><path d="M238.89,98.84s-.09,0-.09.1c0,1.08-.14,2.32-1.12,2.66,0,0,0,.07,0,.06C238.88,101.51,239.08,99.86,238.89,98.84Z" style="fill:#263238"></path><path d="M237.94,97.7c-1.74-.15-1.92,3.33-.31,3.47S239.39,97.83,237.94,97.7Z" style="fill:#263238"></path><path d="M237.2,97.89c-.28.17-.57.49-.9.5s-.65-.39-.87-.76c0,0-.05,0-.06,0-.05.67.13,1.37.76,1.53s1-.4,1.23-1C237.4,98,237.32,97.82,237.2,97.89Z" style="fill:#263238"></path><path d="M244.52,107.75c-.25.26-.5.61-.89.65a2.9,2.9,0,0,1-1.16-.24s-.07,0-.05,0a1.45,1.45,0,0,0,1.38.56,1.16,1.16,0,0,0,.83-1C244.65,107.73,244.56,107.71,244.52,107.75Z" style="fill:#263238"></path><path d="M240.14,103.69s-.27,1.61-.3,2.37c0,.07.18.11.44.13h0a3.61,3.61,0,0,0,3.55-1.24c.06-.07,0-.15-.1-.11a5.43,5.43,0,0,1-3.34.84c0-.21.57-2.73.45-2.75a6.93,6.93,0,0,0-1.74.34c.48-3.36,1.49-6.61,1.92-10a.1.1,0,0,0-.2,0,54.86,54.86,0,0,0-2.52,10.64C238.25,104.33,239.84,103.81,240.14,103.69Z" style="fill:#263238"></path><path d="M240.8,105.8a3.9,3.9,0,0,0,1.47,1.33,1.77,1.77,0,0,0,1,.14c.79-.14.86-.84.76-1.46a4,4,0,0,0-.27-1A5,5,0,0,1,240.8,105.8Z" style="fill:#263238"></path><path d="M242.27,107.13a1.77,1.77,0,0,0,1,.14c.79-.14.86-.84.76-1.46A1.81,1.81,0,0,0,242.27,107.13Z" style="fill:#ff9cbd"></path><path d="M232.77,92.75c1.86.6,8.49-3.52,11.15-9.45a14.94,14.94,0,0,0,4.68,9c4.32,4,8.42,4.3,8.42,4.3s1.28,7.14,2.46,7.3,8.61-24.29-12.17-24.57c0,0-6.08-.61-9.88,2.94S232.77,92.75,232.77,92.75Z" style="fill:#263238"></path><path d="M257.19,101.83s3.49-4.92,5.73-3.68-.41,8.41-3.06,9.38a2.68,2.68,0,0,1-3.58-1.47Z" style="fill:#ad6359"></path><path d="M262.11,100.19s.05,0,0,.07c-1.85.74-2.84,2.44-3.53,4.22a1.48,1.48,0,0,1,2.22-.39c.05,0,0,.11-.05.09a1.67,1.67,0,0,0-1.82.57,7.76,7.76,0,0,0-.88,1.46c-.09.17-.39.08-.32-.11v0C257.72,103.7,259.58,100.41,262.11,100.19Z" style="fill:#263238"></path><path d="M243.77,123.87c-.69.36.32,13.22.76,13.94.16.27,8.6-6.4,11.41-15C255.94,122.84,251,120.13,243.77,123.87Z" style="fill:#ad6359"></path><rect x="197.37" y="154.41" width="40.32" height="52.48" transform="translate(-43.87 72.83) rotate(-17.29)" style="fill:#455a64"></rect><rect x="200.07" y="152.94" width="19.11" height="5.79" transform="translate(456.19 242.03) rotate(162.64)" style="fill:#a6a6a6"></rect><polygon points="203.78 154.63 206.03 153.93 205.23 151.38 210.69 149.67 211.49 152.22 213.73 151.52 212.28 146.88 202.3 150 203.78 154.63" style="fill:#a6a6a6"></polygon><path d="M236.43,168.71a4.17,4.17,0,0,1,.79,4.69,6.18,6.18,0,0,1,3.58,2.2c1.49,2.06-1.09,5.31-1.09,5.31a7.6,7.6,0,0,1,3.41,2.92c1.23,2.11-.9,5.76-.9,5.76a6.7,6.7,0,0,1,1.38,4.46c-.41,4.27-6.28,7.19-10,9.09s-16,3.81-18.31,4.41l-12.39-23.71s14.22-13.24,18.9-14.85C225.75,167.63,234.07,166.47,236.43,168.71Z" style="fill:#ad6359"></path><path d="M204.59,182.3c-4.24,3.26-17,15.81-14,22.2S203.83,210.25,218,207Z" style="fill:#ad6359"></path><path d="M204.59,182.3c-4.24,3.26-17.64,15.51-14.25,23.72,2.7,6.52,14.74,7.31,28.95,4Z" style="fill:#ebebeb"></path><path d="M212,210.29c-4.44-10.55-10.72-21-11.68-22.87a.08.08,0,1,0-.13.08c1,1.81,6.91,14.5,11.66,22.89C211.89,210.48,212,210.4,212,210.29Z" style="fill:#263238"></path><path d="M236.85,173.11c-4.53.43-8.69,2.19-12.94,3.71a.07.07,0,1,0,.05.14c4.21-1.55,8.68-2.26,12.94-3.64A.11.11,0,0,0,236.85,173.11Z" style="fill:#263238"></path><path d="M239.48,180.64a11.89,11.89,0,0,0-2.95,1c-1,.43-2,.86-3,1.32-2,.91-4,1.86-5.95,2.88-.09,0,0,.19,0,.14,2-.9,4-1.77,6.06-2.59,1-.41,2-.81,3.07-1.2a14.76,14.76,0,0,0,2.85-1.25A.15.15,0,0,0,239.48,180.64Z" style="fill:#263238"></path><path d="M242.13,189.62a8.2,8.2,0,0,0-2.6,1l-2.73,1.28c-1.82.85-3.64,1.69-5.49,2.48-.09,0,0,.18.05.14,1.89-.78,3.78-1.54,5.66-2.34l2.76-1.2a7.89,7.89,0,0,0,2.4-1.31S242.18,189.62,242.13,189.62Z" style="fill:#263238"></path><path d="M204,182.52a40.39,40.39,0,0,0-4.22,3.58l-1,1-.43.28c-.6.4-1.2.81-1.76,1.26a33.21,33.21,0,0,0-3.08,2.85c-.07.08,0,.18.12.11A28,28,0,0,1,197,189l.46-.31c-.56.61-1.1,1.24-1.6,1.89a54,54,0,0,0-3.72,5.41c-.05.09.09.16.14.07,2.07-3.32,11.09-12.2,12.08-13.27S204.78,181.91,204,182.52Z" style="fill:#263238"></path></g><g id="freepik--Heart--inject-4"><path d="M342,109.29a73.87,73.87,0,0,1-23.71,20.57,73.92,73.92,0,0,1-23.69-20.57c-8.34-11-7.93-28.33,4-32.07C311.84,73.09,318.32,93,318.32,93s6.59-20,19.7-15.73C349.92,81.09,350.37,98.25,342,109.29Z" style="fill:#59D7EE"></path><polygon points="309.01 121.13 305.42 106.15 303.07 111.43 288.53 111.43 288.53 109.74 301.97 109.74 305.89 100.91 308.7 112.59 312.67 88.39 316.17 107.53 318.94 99.54 323.3 112.62 324.27 109.73 348.14 109.73 348.14 111.42 325.48 111.42 323.3 117.96 318.91 104.79 315.66 114.17 312.76 98.29 309.01 121.13" style="fill:#fff"></polygon></g><g id="freepik--Bag--inject-4"><polygon points="417.11 363.92 417.11 379.24 410.99 379.24 410.99 370.52 389.78 370.52 389.78 379.24 383.66 379.24 383.66 363.92 417.11 363.92" style="fill:#59D7EE"></polygon><rect x="383.66" y="372.5" width="6.12" height="6.74" style="opacity:0.1"></rect><rect x="410.99" y="372.5" width="6.12" height="6.74" style="opacity:0.1"></rect><polygon points="445.75 432.61 355.04 432.61 360.04 375.87 440.75 375.87 445.75 432.61" style="fill:#59D7EE"></polygon><polygon points="400.4 432.61 355.04 432.61 360.04 375.87 400.4 375.87 400.4 432.61" style="opacity:0.1"></polygon><polygon points="414.36 400.94 414.36 407.54 403.7 407.54 403.7 418.2 397.1 418.2 397.1 407.54 386.44 407.54 386.44 400.94 397.1 400.94 397.1 390.28 403.7 390.28 403.7 400.94 414.36 400.94" style="fill:#fffffd"></polygon></g></svg>