<?xml version="1.0" encoding="UTF-8"?>
<svg width="60px" height="73px" viewBox="0 0 60 73" version="1.1" xmlns="http://www.w3.org/2000/svg" xmlns:xlink="http://www.w3.org/1999/xlink">
    <title>inventarios</title>
    <g id="Page-1" stroke="none" stroke-width="1" fill="none" fill-rule="evenodd">
        <g id="Desktop-HD" transform="translate(-884.000000, -1611.000000)" fill-rule="nonzero">
            <g id="inventarios" transform="translate(884.000000, 1611.000000)">
                <path d="M44.79,10.58 L44.79,14.14 L14.94,14.14 L14.94,10.58 L4.55,10.58 L4.55,68.47 L55.21,68.47 L55.21,10.58 L44.79,10.58 Z M15.79,58.8 L10.85,53.87 L13.51,51.21 L15.79,53.49 L21.37,47.92 L24.02,50.58 L15.79,58.8 Z M15.79,36.88 L10.94,31.93 L13.6,29.27 L15.88,31.56 L21.46,25.98 L24.11,28.64 L15.79,36.88 Z" id="Shape" fill="#FFFFFF"></path>
                <rect id="Rectangle" fill="#9BC1EC" x="4.53" y="62.88" width="50.66" height="5.6"></rect>
                <path d="M59.71,73 L0,73 L0,6.06 L14.14,6.06 L14.14,5.99 C14.14,3.22857625 16.3785763,0.99 19.14,0.99 L40.58,0.99 C43.3414237,0.99 45.58,3.22857625 45.58,5.99 L45.58,6.06 L59.73,6.06 L59.71,73 Z M1.54,71.46 L58.17,71.46 L58.17,7.6 L44.02,7.6 L44.02,5.99 C44.0145076,4.08689728 42.4731027,2.54549239 40.57,2.54 L19.13,2.54 C17.2268973,2.54549239 15.6854924,4.08689728 15.68,5.99 L15.68,7.6 L1.54,7.6 L1.54,71.46 Z M55.95,69.25 L3.75,69.25 L3.75,9.81 L15.68,9.81 L15.68,13.37 L44.02,13.37 L44.02,9.81 L55.94,9.81 L55.95,69.25 Z M5.29,67.7 L54.41,67.7 L54.41,11.35 L45.56,11.35 L45.56,14.93 L14.14,14.93 L14.14,11.37 L5.29,11.37 L5.29,67.7 Z M41.81,11.15 L17.94,11.15 L17.94,5.99 C17.94,5.31068976 18.4906898,4.76 19.17,4.76 L40.61,4.76 C41.2909468,4.76 41.8445085,5.30907536 41.85,5.99 L41.81,11.15 Z M19.44,9.61 L40.27,9.61 L40.27,6.3 L19.44,6.3 L19.44,9.61 Z" id="Shape" fill="#36576A"></path>
                <path d="M15.84,37.93 L9.84,31.93 L13.59,28.18 L15.87,30.47 L21.45,24.89 L25.19,28.64 L15.84,37.93 Z M11.99,31.93 L15.84,35.78 L22.99,28.64 L21.42,27.07 L15.84,32.65 L13.56,30.36 L11.99,31.93 Z" id="Shape" fill="#36576A"></path>
                <path d="M15.84,59.93 L9.84,53.93 L13.59,50.18 L15.87,52.46 L21.45,46.89 L25.19,50.64 L15.84,59.93 Z M11.99,53.93 L15.84,57.78 L22.99,50.64 L21.42,49.07 L15.84,54.65 L13.56,52.37 L11.99,53.93 Z" id="Shape" fill="#36576A"></path>
                <path d="M49.11,33.42 L28.53,33.42 L28.53,28.13 L49.11,28.13 L49.11,33.42 Z M30.11,31.88 L47.61,31.88 L47.61,29.67 L30.11,29.67 L30.11,31.88 Z" id="Shape" fill="#36576A"></path>
                <path d="M49.11,55.34 L28.53,55.34 L28.53,50.04 L49.11,50.04 L49.11,55.34 Z M30.11,53.8 L47.61,53.8 L47.61,51.59 L30.11,51.59 L30.11,53.8 Z" id="Shape" fill="#36576A"></path>
            </g>
        </g>
    </g>
</svg>