<svg width="64" height="57" viewBox="0 0 64 57" fill="none" xmlns="http://www.w3.org/2000/svg">
<path d="M56.5798 34.5043C49.879 43.4687 41.3304 50.8888 31.5126 56.2623C21.6948 50.8888 13.1461 43.4687 6.44533 34.5043C-2.37931 22.8258 -1.94414 4.53896 10.6856 0.592162C24.6512 -3.75944 31.5126 17.3003 31.5126 17.3003C31.5126 17.3003 38.4751 -3.85052 52.3497 0.663002C64.9288 4.711 65.4045 22.8562 56.5798 34.5043Z" fill="#57A2F5"/>
<path d="M21.6669 47.0632L17.8517 31.2153L15.3723 36.8015H0V35.0103H14.2085L18.3678 25.6695L21.333 38.026L25.5226 12.4224L29.2265 32.6826L32.1613 24.2223L36.7761 38.0665L37.7982 35.0103H63.0476V36.7914H39.0834L36.7761 43.7134L32.131 29.7782L28.7003 39.6958L25.6238 22.8966L21.6669 47.0632Z" fill="white"/>
</svg>
