<svg width="137" height="17" viewBox="0 0 137 17" xmlns="http://www.w3.org/2000/svg"><title>Fill 1</title><path d="M135.542 0c-5.033 0-7.484 4.14-9.645 7.793-2.022 3.422-3.77 6.372-7.117 6.372-3.346 0-5.094-2.95-7.115-6.372C109.502 4.14 107.055 0 102.019 0c-5.033 0-7.485 4.14-9.643 7.793-2.024 3.42-3.77 6.372-7.117 6.372-3.346 0-5.094-2.95-7.117-6.372C75.981 4.14 73.535 0 68.497 0c-5.035 0-7.482 4.14-9.644 7.795-2.025 3.42-3.769 6.37-7.115 6.37s-5.092-2.952-7.114-6.372C42.461 4.14 40.014 0 34.982 0c-5.034 0-7.484 4.14-9.647 7.793-2.021 3.422-3.77 6.372-7.115 6.372-3.346 0-5.093-2.95-7.117-6.372C8.942 4.14 6.494 0 1.458 0 .651 0 0 .633 0 1.417s.651 1.418 1.458 1.418c3.348 0 5.095 2.95 7.117 6.372C10.736 12.858 13.187 17 18.22 17c5.035 0 7.484-4.142 9.647-7.793 2.022-3.422 3.766-6.372 7.115-6.372 3.343 0 5.09 2.95 7.112 6.37C44.256 12.858 46.704 17 51.738 17c5.033 0 7.484-4.142 9.644-7.793 2.021-3.42 3.768-6.372 7.115-6.372 3.348 0 5.095 2.95 7.117 6.372C77.775 12.858 80.226 17 85.259 17c5.035 0 7.484-4.142 9.647-7.795 2.022-3.42 3.767-6.37 7.113-6.37 3.348 0 5.092 2.95 7.116 6.372 2.163 3.651 4.61 7.793 9.645 7.793 5.035 0 7.485-4.142 9.645-7.793 2.024-3.422 3.77-6.372 7.117-6.372.805 0 1.458-.634 1.458-1.418C137 .633 136.347 0 135.542 0z" fill="#E1E1E1" fill-rule="evenodd"/></svg>