<svg xmlns="http://www.w3.org/2000/svg" xmlns:xlink="http://www.w3.org/1999/xlink" width="512" height="512" viewBox="0 0 512 512"><defs><polygon id="a" points="0 3.788 0 368.472 506.325 368.472 506.325 3.788 0 3.788"/><polygon id="c" points="246.141 .542 1.537 .542 1.537 115.025 246.141 115.025 246.141 .542"/><polygon id="e" points="0 461.412 506.326 461.412 506.326 3.102 0 3.102"/></defs><g fill="none" fill-rule="evenodd" transform="translate(0 25)"><path fill="#FEFEFE" d="M471.094659,450.980672 L35.2304432,450.980672 C21.510227,450.980672 10.3846054,439.801364 10.3846054,426.007988 L10.3846054,132.127056 C10.3846054,118.33368 21.510227,107.154372 35.2304432,107.154372 L471.094659,107.154372 C484.821795,107.154372 495.947416,118.33368 495.947416,132.127056 L495.947416,426.007988 C495.947416,439.801364 484.821795,450.980672 471.094659,450.980672 L471.094659,450.980672 Z"/><g transform="translate(0 92.94)"><mask id="b" fill="#fff"><use xlink:href="#a"/></mask><path fill="#2E2E30" d="M35.2297514,24.64523 C27.2522378,24.64523 20.755373,31.1664932 20.755373,39.1894545 L20.755373,333.070387 C20.755373,341.093349 27.2522378,347.614612 35.2297514,347.614612 L471.093968,347.614612 C479.071481,347.614612 485.568346,341.093349 485.568346,333.070387 L485.568346,39.1894545 C485.568346,31.1664932 479.071481,24.64523 471.093968,24.64523 L35.2297514,24.64523 Z M471.093968,368.47153 L35.2297514,368.47153 C15.801427,368.47153 -0.00138378378,352.592463 -0.00138378378,333.070387 L-0.00138378378,39.1894545 C-0.00138378378,19.6673788 15.801427,3.78831161 35.2297514,3.78831161 L471.093968,3.78831161 C490.522292,3.78831161 506.325103,19.6673788 506.325103,39.1894545 L506.325103,333.070387 C506.325103,352.592463 490.522292,368.47153 471.093968,368.47153 L471.093968,368.47153 Z" mask="url(#b)"/></g><polygon fill="#E42E44" points="331.539 252.786 287.514 252.786 287.514 208.549 216.969 208.549 216.969 252.786 172.944 252.786 172.944 323.665 216.969 323.665 216.969 367.91 287.514 367.91 287.514 323.665 331.539 323.665"/><path fill="#2E2E30" d="M227.351524,357.480497 L277.133146,357.480497 L277.133146,323.671432 C277.133146,317.914923 281.782659,313.242973 287.511524,313.242973 L321.165146,313.242973 L321.165146,263.214178 L287.511524,263.214178 C281.782659,263.214178 277.133146,258.549181 277.133146,252.785719 L277.133146,218.969702 L227.351524,218.969702 L227.351524,252.785719 C227.351524,258.549181 222.702011,263.214178 216.973146,263.214178 L183.326443,263.214178 L183.326443,313.242973 L216.973146,313.242973 C222.702011,313.242973 227.351524,317.914923 227.351524,323.671432 L227.351524,357.480497 Z M287.511524,378.337416 L216.973146,378.337416 C211.244281,378.337416 206.594768,373.665466 206.594768,367.908956 L206.594768,334.099892 L172.948065,334.099892 C167.2192,334.099892 162.569686,329.427942 162.569686,323.671432 L162.569686,252.785719 C162.569686,247.02921 167.2192,242.35726 172.948065,242.35726 L206.594768,242.35726 L206.594768,208.548195 C206.594768,202.784733 211.244281,198.119736 216.973146,198.119736 L287.511524,198.119736 C293.240389,198.119736 297.889903,202.784733 297.889903,208.548195 L297.889903,242.35726 L331.543524,242.35726 C337.272389,242.35726 341.921903,247.02921 341.921903,252.785719 L341.921903,323.671432 C341.921903,329.427942 337.272389,334.099892 331.543524,334.099892 L297.889903,334.099892 L297.889903,367.908956 C297.889903,373.665466 293.240389,378.337416 287.511524,378.337416 L287.511524,378.337416 Z"/><path fill="#3D3D3D" d="M143.371762,38.5587482 L143.371762,107.157153 L186.573492,107.157153 L186.573492,53.3602079 L324.017816,53.3602079 L324.017816,107.157153 L367.226465,107.157153 L367.226465,38.5587482 C367.226465,24.7375636 356.073168,13.5304461 342.318357,13.5304461 L168.27987,13.5304461 C154.525059,13.5304461 143.371762,24.7375636 143.371762,38.5587482"/><g transform="translate(131.46 2.56)"><mask id="d" fill="#fff"><use xlink:href="#c"/></mask><path fill="#2E2E30" d="M202.939503,94.1682914 L225.384476,94.1682914 L225.384476,35.998346 C225.384476,27.9475754 218.873773,21.3985031 210.861665,21.3985031 L36.8162595,21.3985031 C28.8041514,21.3985031 22.2934486,27.9475754 22.2934486,35.998346 L22.2934486,94.1682914 L44.7384216,94.1682914 L44.7384216,50.7998057 C44.7384216,45.0432962 49.3879351,40.3713465 55.1168,40.3713465 L192.561124,40.3713465 C198.289989,40.3713465 202.939503,45.0432962 202.939503,50.7998057 L202.939503,94.1682914 Z M235.762854,115.02521 L192.561124,115.02521 C186.832259,115.02521 182.182746,110.360212 182.182746,104.596751 L182.182746,61.2282649 L65.4951784,61.2282649 L65.4951784,104.596751 C65.4951784,110.360212 60.8456649,115.02521 55.1168,115.02521 L11.9150703,115.02521 C6.18620541,115.02521 1.53669189,110.360212 1.53669189,104.596751 L1.53669189,35.998346 C1.53669189,16.4484611 17.3671784,0.541584648 36.8162595,0.541584648 L210.861665,0.541584648 C230.310746,0.541584648 246.141232,16.4484611 246.141232,35.998346 L246.141232,104.596751 C246.141232,110.360212 241.491719,115.02521 235.762854,115.02521 L235.762854,115.02521 Z" mask="url(#d)"/></g><mask id="f" fill="#fff"><use xlink:href="#e"/></mask><polygon fill="#FEFEFE" points="52.051 106.879 110.862 106.879 110.862 70.887 52.051 70.887" mask="url(#f)"/><path fill="#2E2E30" d="M62.4294054,96.4506014 L100.483459,96.4506014 L100.483459,81.3154309 L62.4294054,81.3154309 L62.4294054,96.4506014 Z M110.861838,117.30752 L52.051027,117.30752 C46.3221622,117.30752 41.6726486,112.642522 41.6726486,106.879061 L41.6726486,70.8869717 C41.6726486,65.1304622 46.3221622,60.4585125 52.051027,60.4585125 L110.861838,60.4585125 C116.597622,60.4585125 121.240216,65.1304622 121.240216,70.8869717 L121.240216,106.879061 C121.240216,112.642522 116.597622,117.30752 110.861838,117.30752 L110.861838,117.30752 Z" mask="url(#f)"/><polygon fill="#FEFEFE" points="398.862 106.879 457.673 106.879 457.673 70.887 398.862 70.887" mask="url(#f)"/><path fill="#2E2E30" d="M409.240216,96.4506014 L447.29427,96.4506014 L447.29427,81.3154309 L409.240216,81.3154309 L409.240216,96.4506014 Z M457.672649,117.30752 L398.861838,117.30752 C393.132973,117.30752 388.483459,112.642522 388.483459,106.879061 L388.483459,70.8869717 C388.483459,65.1304622 393.132973,60.4585125 398.861838,60.4585125 L457.672649,60.4585125 C463.408432,60.4585125 468.051027,65.1304622 468.051027,70.8869717 L468.051027,106.879061 C468.051027,112.642522 463.408432,117.30752 457.672649,117.30752 L457.672649,117.30752 Z" mask="url(#f)"/><path fill="#040605" d="M471.094659,107.155762 L457.692714,107.155762 C458.398443,117.924885 477.418551,450.982062 143.373146,450.982062 L471.094659,450.982062 C484.821795,450.982062 495.947416,439.802754 495.947416,426.009379 L495.947416,132.128446 C495.947416,118.335071 484.821795,107.155762 471.094659,107.155762" mask="url(#f)" opacity=".15"/></g></svg>